<?xml version="1.0" encoding="UTF-8" standalone="no"?>
<!-- Created with Inkscape (http://www.inkscape.org/) -->

<svg
   xmlns:dc="http://purl.org/dc/elements/1.1/"
   xmlns:cc="http://creativecommons.org/ns#"
   xmlns:rdf="http://www.w3.org/1999/02/22-rdf-syntax-ns#"
   xmlns:svg="http://www.w3.org/2000/svg"
   xmlns="http://www.w3.org/2000/svg"
   xmlns:sodipodi="http://sodipodi.sourceforge.net/DTD/sodipodi-0.dtd"
   xmlns:inkscape="http://www.inkscape.org/namespaces/inkscape"
   width="92.604164mm"
   height="14.552083mm"
   viewBox="0 0 92.604164 14.552083"
   version="1.1"
   id="svg8"
   inkscape:export-filename="C:\Users\Matheus Jonatha\OneDrive\GitHub\annway.github.io\assets\img\proexIfrn.png"
   inkscape:export-xdpi="96"
   inkscape:export-ydpi="96"
   inkscape:version="0.92.4 (5da689c313, 2019-01-14)"
   sodipodi:docname="rodape.svg">
  <defs
     id="defs2" />
  <sodipodi:namedview
     id="base"
     pagecolor="#ffffff"
     bordercolor="#666666"
     borderopacity="1.0"
     inkscape:pageopacity="0.0"
     inkscape:pageshadow="2"
     inkscape:zoom="1.1357887"
     inkscape:cx="171.53315"
     inkscape:cy="40.324803"
     inkscape:document-units="mm"
     inkscape:current-layer="layer2"
     showgrid="false"
     inkscape:window-width="1366"
     inkscape:window-height="715"
     inkscape:window-x="-8"
     inkscape:window-y="-8"
     inkscape:window-maximized="1"
     showguides="true"
     inkscape:guide-bbox="true"
     fit-margin-top="0"
     fit-margin-left="0"
     fit-margin-right="0"
     fit-margin-bottom="0">
    <sodipodi:guide
       position="44.34096,86.137325"
       orientation="0,1"
       id="guide846"
       inkscape:locked="false" />
    <sodipodi:guide
       position="39.253901,71.565925"
       orientation="0,1"
       id="guide848"
       inkscape:locked="false" />
  </sodipodi:namedview>
  <metadata
     id="metadata5">
    <rdf:RDF>
      <cc:Work
         rdf:about="">
        <dc:format>image/svg+xml</dc:format>
        <dc:type
           rdf:resource="http://purl.org/dc/dcmitype/StillImage" />
        <dc:title></dc:title>
      </cc:Work>
    </rdf:RDF>
  </metadata>
  <g
     inkscape:label="fundo"
     inkscape:groupmode="layer"
     id="layer1"
     style="display:inline"
     transform="translate(-55.417133,-176.48407)" />
  <g
     inkscape:groupmode="layer"
     id="layer2"
     inkscape:label="logos"
     transform="translate(-55.417133,-176.48407)">
    <g
       id="g1086"
       inkscape:export-xdpi="96"
       inkscape:export-ydpi="96"
       transform="matrix(0.99586184,0,0,1.0027201,-52.011867,11.643161)">
      <g
         id="g867"
         inkscape:export-filename="C:\Users\Matheus Jonatha\OneDrive\GitHub\annway.github.io\assets\img\proexIfrn.png"
         inkscape:export-xdpi="96"
         inkscape:export-ydpi="96"
         transform="translate(12.113463,-15.840682)">
        <g
           id="Layer1000"
           transform="matrix(0.26458333,0,0,0.26458333,73.089659,-12.092636)">
          <g
             id="g1047"
             transform="translate(49.1258,233.34755)">
            <path
               inkscape:connector-curvature="0"
               id="path18"
               style="fill:#ffffff;fill-rule:evenodd"
               d="m 290.1492,545.6747 h -1.0221 l -4.2053,-6.4579 h -0.0412 c 0.0555,0.7581 0.0844,1.4533 0.0844,2.0838 v 4.3741 h -0.8265 v -7.6937 h 1.0096 l 4.1944,6.4309 h 0.0432 c -0.007,-0.0952 -0.0235,-0.3988 -0.0487,-0.9125 -0.0231,-0.5156 -0.0323,-0.882 -0.0251,-1.1029 v -4.4155 h 0.8373 z m 5.529,0 -0.1725,-0.8211 h -0.043 c -0.2875,0.3613 -0.575,0.6054 -0.8605,0.735 -0.2855,0.1273 -0.6431,0.1919 -1.0705,0.1919 -0.5712,0 -1.0204,-0.147 -1.3456,-0.4434 -0.3233,-0.2947 -0.4867,-0.7132 -0.4867,-1.2576 0,-1.164 0.9324,-1.7748 2.795,-1.8303 l 0.9789,-0.0323 v -0.3576 c 0,-0.4526 -0.0969,-0.7867 -0.2926,-1.0024 -0.194,-0.2154 -0.5049,-0.3233 -0.9341,-0.3233 -0.4797,0 -1.0238,0.1474 -1.6311,0.442 l -0.2675,-0.6683 c 0.2838,-0.1544 0.5944,-0.2766 0.934,-0.363 0.3376,-0.0878 0.6771,-0.1327 1.0184,-0.1327 0.6863,0 1.1964,0.1527 1.5288,0.458 0.3304,0.3052 0.4975,0.7958 0.4975,1.4693 v 3.9358 z m -1.9722,-0.6162 c 0.5424,0 0.9698,-0.1491 1.2807,-0.4472 0.3107,-0.2983 0.4652,-0.7149 0.4652,-1.2521 v -0.521 l -0.8731,0.0361 c -0.6952,0.0252 -1.1964,0.1327 -1.5016,0.325 -0.3073,0.1905 -0.4617,0.4886 -0.4617,0.8911 0,0.3161 0.0952,0.5567 0.2875,0.722 0.1902,0.1634 0.458,0.2461 0.803,0.2461 z m 6.2836,0 c 0.1545,0 0.3035,-0.0106 0.4471,-0.0341 0.1436,-0.0234 0.2569,-0.0466 0.3413,-0.0701 v 0.6683 c -0.0953,0.0449 -0.2334,0.0827 -0.4185,0.113 -0.1831,0.0289 -0.3502,0.0449 -0.4975,0.0449 -1.1157,0 -1.6724,-0.589 -1.6724,-1.7639 v -3.4309 h -0.8265 v -0.4203 l 0.8265,-0.3647 0.3682,-1.2304 h 0.5046 v 1.3365 h 1.6744 v 0.6789 h -1.6744 v 3.3951 c 0,0.3467 0.0827,0.6125 0.248,0.7993 0.1654,0.1851 0.3917,0.2784 0.6792,0.2784 z m 5.4875,0.6162 -0.1725,-0.8211 h -0.0429 c -0.2876,0.3613 -0.5751,0.6054 -0.8606,0.735 -0.2855,0.1273 -0.6431,0.1919 -1.0704,0.1919 -0.5713,0 -1.0205,-0.147 -1.3457,-0.4434 -0.3233,-0.2947 -0.4867,-0.7132 -0.4867,-1.2576 0,-1.164 0.9324,-1.7748 2.795,-1.8303 l 0.9789,-0.0323 v -0.3576 c 0,-0.4526 -0.0969,-0.7867 -0.2926,-1.0024 -0.194,-0.2154 -0.5049,-0.3233 -0.934,-0.3233 -0.4798,0 -1.0239,0.1474 -1.6312,0.442 l -0.2675,-0.6683 c 0.2838,-0.1544 0.5944,-0.2766 0.934,-0.363 0.3376,-0.0878 0.6771,-0.1327 1.0184,-0.1327 0.6863,0 1.1964,0.1527 1.5288,0.458 0.3304,0.3052 0.4975,0.7958 0.4975,1.4693 v 3.9358 z m -1.9722,-0.6162 c 0.5424,0 0.9698,-0.1491 1.2807,-0.4472 0.3107,-0.2983 0.4652,-0.7149 0.4652,-1.2521 v -0.521 l -0.8731,0.0361 c -0.6952,0.0252 -1.1964,0.1327 -1.5016,0.325 -0.3073,0.1905 -0.4617,0.4886 -0.4617,0.8911 0,0.3161 0.0952,0.5567 0.2875,0.722 0.1902,0.1634 0.458,0.2461 0.803,0.2461 z m 5.2938,0.6162 h -0.8731 v -8.1895 h 0.8731 z m 1.3688,-2.4897 v -0.7993 h 2.5847 v 0.7993 z m 7.379,-4.514 c -0.8459,0 -1.5124,0.2801 -2.0028,0.8442 -0.4886,0.5621 -0.7346,1.3328 -0.7346,2.3118 0,1.0078 0.2372,1.7856 0.7077,2.3352 0.4724,0.5478 1.1461,0.8227 2.0192,0.8227 0.5369,0 1.1494,-0.0969 1.8357,-0.2892 v 0.785 c -0.5318,0.1994 -1.1909,0.2998 -1.9722,0.2998 -1.1337,0 -2.0085,-0.3447 -2.6244,-1.0327 -0.6145,-0.6863 -0.9235,-1.6635 -0.9235,-2.9297 0,-0.7941 0.149,-1.4893 0.4454,-2.0855 0.2964,-0.5964 0.7241,-1.0565 1.2845,-1.378 0.5587,-0.3233 1.2178,-0.4849 1.9759,-0.4849 0.8065,0 1.5125,0.1473 2.1144,0.442 l -0.3773,0.7687 c -0.5839,-0.2729 -1.1658,-0.4094 -1.748,-0.4094 z m 5.8096,7.1095 c -0.8533,0 -1.525,-0.2603 -2.0174,-0.7795 -0.494,-0.519 -0.74,-1.2393 -0.74,-2.1628 0,-0.9303 0.2283,-1.6686 0.6863,-2.2165 0.458,-0.5461 1.0722,-0.821 1.8446,-0.821 0.7223,0 1.2953,0.2389 1.7156,0.7132 0.4222,0.476 0.6322,1.1028 0.6322,1.8826 v 0.5513 h -3.9733 c 0.018,0.6771 0.1885,1.1909 0.5118,1.5431 0.3252,0.3501 0.7832,0.5264 1.3726,0.5264 0.6196,0 1.2338,-0.1293 1.8411,-0.39 v 0.7796 c -0.3089,0.133 -0.5999,0.2283 -0.8765,0.2858 -0.2749,0.0575 -0.6073,0.0878 -0.997,0.0878 z m -0.2371,-5.2469 c -0.4635,0 -0.8319,0.1508 -1.1066,0.4526 -0.2766,0.3018 -0.4382,0.7186 -0.4869,1.2521 h 3.0144 c 0,-0.5515 -0.1221,-0.9735 -0.3685,-1.2664 -0.246,-0.2927 -0.5961,-0.4383 -1.0524,-0.4383 z m 7.7941,5.1411 v -3.731 c 0,-0.4706 -0.1076,-0.8208 -0.3216,-1.0525 -0.2137,-0.2317 -0.5478,-0.3467 -1.0041,-0.3467 -0.6033,0 -1.0453,0.1616 -1.3274,0.4886 -0.28,0.3267 -0.4202,0.864 -0.4202,1.6149 v 3.0267 h -0.8731 v -5.7679 h 0.7094 l 0.1419,0.7902 h 0.0432 c 0.178,-0.2855 0.4294,-0.5047 0.7527,-0.6609 0.3215,-0.1564 0.6826,-0.2354 1.0779,-0.2354 0.6952,0 1.2178,0.1688 1.568,0.5029 0.3522,0.3359 0.5264,0.8714 0.5264,1.6078 v 3.7633 z m 4.5322,-0.6162 c 0.1545,0 0.3036,-0.0106 0.4472,-0.0341 0.1436,-0.0234 0.2569,-0.0466 0.3413,-0.0701 v 0.6683 c -0.0953,0.0449 -0.2335,0.0827 -0.4186,0.113 -0.183,0.0289 -0.3501,0.0449 -0.4974,0.0449 -1.1157,0 -1.6724,-0.589 -1.6724,-1.7639 v -3.4309 h -0.8265 v -0.4203 l 0.8265,-0.3647 0.3681,-1.2304 h 0.5047 v 1.3365 h 1.6744 v 0.6789 h -1.6744 v 3.3951 c 0,0.3467 0.0827,0.6125 0.248,0.7993 0.1654,0.1851 0.3916,0.2784 0.6791,0.2784 z m 4.5715,-5.2578 c 0.2569,0 0.4866,0.0215 0.6897,0.0647 l -0.1204,0.8101 c -0.2389,-0.0538 -0.4491,-0.0789 -0.6322,-0.0789 -0.4652,0 -0.866,0.1885 -1.1964,0.5675 -0.3324,0.3791 -0.4975,0.8514 -0.4975,1.4155 v 3.0951 h -0.8731 v -5.7679 h 0.7204 l 0.1007,1.0688 h 0.0412 c 0.2137,-0.3756 0.4723,-0.6648 0.7741,-0.8694 0.3018,-0.2031 0.6325,-0.3055 0.9935,-0.3055 z m 5.0996,5.874 -0.1725,-0.8211 h -0.0429 c -0.2875,0.3613 -0.575,0.6054 -0.8605,0.735 -0.2856,0.1273 -0.6431,0.1919 -1.0705,0.1919 -0.5713,0 -1.0205,-0.147 -1.3457,-0.4434 -0.3233,-0.2947 -0.4866,-0.7132 -0.4866,-1.2576 0,-1.164 0.9323,-1.7748 2.7949,-1.8303 l 0.9789,-0.0323 v -0.3576 c 0,-0.4526 -0.0969,-0.7867 -0.2926,-1.0024 -0.194,-0.2154 -0.5049,-0.3233 -0.934,-0.3233 -0.4798,0 -1.0239,0.1474 -1.6312,0.442 l -0.2675,-0.6683 c 0.2838,-0.1544 0.5944,-0.2766 0.934,-0.363 0.3376,-0.0878 0.6772,-0.1327 1.0184,-0.1327 0.6863,0 1.1964,0.1527 1.5288,0.458 0.3304,0.3052 0.4975,0.7958 0.4975,1.4693 v 3.9358 z m -1.9722,-0.6162 c 0.5424,0 0.9698,-0.1491 1.2807,-0.4472 0.3107,-0.2983 0.4652,-0.7149 0.4652,-1.2521 v -0.521 l -0.8731,0.0361 c -0.6952,0.0252 -1.1964,0.1327 -1.5016,0.325 -0.3073,0.1905 -0.4617,0.4886 -0.4617,0.8911 0,0.3161 0.0952,0.5567 0.2875,0.722 0.1902,0.1634 0.458,0.2461 0.803,0.2461 z m 5.2938,0.6162 h -0.8731 v -8.1895 h 0.8731 z" />
            <path
               inkscape:connector-curvature="0"
               id="path20"
               style="fill:#ffffff;fill-rule:evenodd"
               d="m 227.8664,531.0257 c 0,0.6181 -0.5143,1.1333 -1.1318,1.1333 h -8.9558 c -0.6175,0 -1.1318,-0.5152 -1.1318,-1.1333 v -8.9543 c 0,-0.6175 0.5143,-1.1333 1.1318,-1.1333 h 8.9558 c 0.6175,0 1.1318,0.5158 1.1318,1.1333 z" />
            <path
               inkscape:connector-curvature="0"
               id="path22"
               style="fill:#ffffff;fill-rule:evenodd"
               d="m 214.4855,504.2637 c 0,0.6168 -0.5141,1.1312 -1.1324,1.1312 h -8.955 c -0.6175,0 -1.1325,-0.5144 -1.1325,-1.1312 v -9.0589 c 0,-0.6166 0.515,-1.1318 1.1325,-1.1318 h 8.955 c 0.6183,0 1.1324,0.5152 1.1324,1.1318 z" />
            <path
               inkscape:connector-curvature="0"
               id="path24"
               style="fill:#ffffff;fill-rule:evenodd"
               d="m 227.8664,504.2637 c 0,0.6168 -0.5143,1.1312 -1.1318,1.1312 h -8.9558 c -0.6175,0 -1.1318,-0.5144 -1.1318,-1.1312 v -9.0589 c 0,-0.6166 0.5143,-1.1318 1.1318,-1.1318 h 8.9558 c 0.6175,0 1.1318,0.5152 1.1318,1.1318 z" />
            <path
               inkscape:connector-curvature="0"
               id="path26"
               style="fill:#ffffff;fill-rule:evenodd"
               d="m 201.0013,517.6446 c 0,0.6181 -0.5143,1.1325 -1.1326,1.1325 h -8.955 c -0.6183,0 -1.1325,-0.5144 -1.1325,-1.1325 v -9.0589 c 0,-0.6168 0.5142,-1.1312 1.1325,-1.1312 h 8.955 c 0.6183,0 1.1326,0.5144 1.1326,1.1312 z" />
            <path
               inkscape:connector-curvature="0"
               id="path28"
               style="fill:#ffffff;fill-rule:evenodd"
               d="m 214.4855,517.6446 c 0,0.6181 -0.5141,1.1325 -1.1324,1.1325 h -8.955 c -0.6175,0 -1.1325,-0.5144 -1.1325,-1.1325 v -9.0589 c 0,-0.6168 0.515,-1.1312 1.1325,-1.1312 h 8.955 c 0.6183,0 1.1324,0.5144 1.1324,1.1312 z" />
            <path
               inkscape:connector-curvature="0"
               id="path30"
               style="fill:#ffffff;fill-rule:evenodd"
               d="m 201.0013,531.0257 c 0,0.6181 -0.5143,1.1333 -1.1326,1.1333 h -8.955 c -0.6183,0 -1.1325,-0.5152 -1.1325,-1.1333 v -8.9543 c 0,-0.6175 0.5142,-1.1333 1.1325,-1.1333 h 8.955 c 0.6183,0 1.1326,0.5158 1.1326,1.1333 z" />
            <path
               inkscape:connector-curvature="0"
               id="path32"
               style="fill:#ffffff;fill-rule:evenodd"
               d="m 214.4855,531.0257 c 0,0.6181 -0.5141,1.1333 -1.1324,1.1333 h -8.955 c -0.6175,0 -1.1325,-0.5152 -1.1325,-1.1333 v -8.9543 c 0,-0.6175 0.515,-1.1333 1.1325,-1.1333 h 8.955 c 0.6183,0 1.1324,0.5158 1.1324,1.1333 z" />
            <path
               inkscape:connector-curvature="0"
               id="path34"
               style="fill:#ffffff;fill-rule:evenodd"
               d="m 201.0013,544.4085 c 0,0.6168 -0.5143,1.1312 -1.1326,1.1312 h -8.955 c -0.6183,0 -1.1325,-0.5144 -1.1325,-1.1312 v -8.9564 c 0,-0.6167 0.5142,-1.1319 1.1325,-1.1319 h 8.955 c 0.6183,0 1.1326,0.5152 1.1326,1.1319 z" />
            <path
               inkscape:connector-curvature="0"
               id="path36"
               style="fill:#ffffff;fill-rule:evenodd"
               d="m 214.4855,544.4085 c 0,0.6168 -0.5141,1.1312 -1.1324,1.1312 h -8.955 c -0.6175,0 -1.1325,-0.5144 -1.1325,-1.1312 v -8.9564 c 0,-0.6167 0.515,-1.1319 1.1325,-1.1319 h 8.955 c 0.6183,0 1.1324,0.5152 1.1324,1.1319 z" />
            <path
               inkscape:connector-curvature="0"
               id="path38"
               style="fill:#ffffff;fill-rule:evenodd"
               d="m 201.6192,499.7342 c 0,3.397 -2.7803,6.1763 -6.1765,6.1763 -3.3967,0 -6.1763,-2.7793 -6.1763,-6.1763 0,-3.3967 2.7796,-6.1763 6.1763,-6.1763 3.3962,0 6.1765,2.7796 6.1765,6.1763 z" />
            <path
               inkscape:connector-curvature="0"
               id="path40"
               style="fill:#ffffff;fill-rule:evenodd"
               d="m 235.6637,518.4646 v -11.1071 h 2.3588 v 11.1071 z m 15.0303,0 h -2.9977 l -4.8421,-8.4023 h -0.0675 c 0.0959,1.4834 0.1456,2.5414 0.1456,3.1742 v 5.2281 h -2.1095 v -11.1071 h 2.9771 l 4.8317,8.3194 h 0.0518 c -0.0753,-1.4444 -0.1143,-2.4637 -0.1143,-3.0627 v -5.2567 h 2.1249 z m 9.3673,-3.0835 c 0,1.0012 -0.361,1.792 -1.0833,2.3704 -0.7222,0.5758 -1.7301,0.8661 -3.0185,0.8661 -1.1871,0 -2.2365,-0.223 -3.151,-0.669 v -2.1888 c 0.7506,0.3345 1.3872,0.5706 1.9069,0.7054 0.5194,0.1374 0.9974,0.2074 1.4286,0.2074 0.5169,0 0.9145,-0.0984 1.1897,-0.2981 0.2779,-0.1971 0.4157,-0.4901 0.4157,-0.8819 0,-0.2152 -0.0622,-0.4096 -0.1845,-0.5808 -0.1195,-0.1685 -0.2987,-0.332 -0.5352,-0.4902 -0.2364,-0.1555 -0.7167,-0.4071 -1.4415,-0.7519 -0.6808,-0.3191 -1.1899,-0.625 -1.5303,-0.9181 -0.3402,-0.293 -0.6105,-0.6353 -0.8156,-1.0268 -0.2026,-0.389 -0.304,-0.8456 -0.304,-1.3669 0,-0.9829 0.3351,-1.7556 1.0001,-2.3183 0.6678,-0.5601 1.5899,-0.8428 2.7667,-0.8428 0.5792,0 1.13,0.07 1.6574,0.2049 0.5247,0.1374 1.0729,0.3292 1.6468,0.5783 l -0.7611,1.8307 c -0.595,-0.2436 -1.086,-0.4123 -1.4729,-0.5082 -0.3871,-0.096 -0.7689,-0.1452 -1.1455,-0.1452 -0.4468,0 -0.7898,0.1037 -1.026,0.3111 -0.2392,0.2075 -0.3587,0.4799 -0.3587,0.8144 0,0.2075 0.0467,0.389 0.1456,0.542 0.0961,0.1556 0.2493,0.3033 0.4599,0.4487 0.2103,0.1452 0.7091,0.4045 1.4936,0.778 1.0416,0.4977 1.7533,0.9957 2.1404,1.4937 0.3844,0.4979 0.5767,1.1099 0.5767,1.8359 z m 6.3099,3.0835 h -2.3588 v -9.1466 h -3.0213 v -1.9605 h 8.4038 v 1.9605 h -3.0237 z m 4.7356,0 v -11.1071 h 2.3587 v 11.1071 z m 9.4504,0 h -2.3588 v -9.1466 h -3.021 v -1.9605 h 8.4035 v 1.9605 h -3.0237 z m 13.7913,-11.1071 v 7.1861 c 0,0.822 -0.1817,1.5404 -0.5507,2.1577 -0.3688,0.6197 -0.899,1.0916 -1.5949,1.4211 -0.6938,0.3292 -1.5171,0.4952 -2.4654,0.4952 -1.4315,0 -2.5433,-0.3682 -3.3329,-1.0994 -0.7922,-0.7313 -1.1871,-1.7325 -1.1871,-3.0032 v -7.1575 h 2.3507 v 6.7996 c 0,0.8559 0.1717,1.4834 0.5174,1.8827 0.3452,0.4021 0.9168,0.6017 1.7116,0.6017 0.7717,0 1.3328,-0.2022 1.6782,-0.6042 0.3482,-0.402 0.5222,-1.0346 0.5222,-1.8957 v -6.7841 z m 7.0164,11.1071 h -2.3588 v -9.1466 h -3.0212 v -1.9605 h 8.4037 v 1.9605 h -3.0237 z m 14.8354,-5.5678 c 0,1.8387 -0.4573,3.2495 -1.3716,4.2374 -0.9116,0.9882 -2.221,1.4834 -3.9253,1.4834 -1.7064,0 -3.0132,-0.4952 -3.9275,-1.4834 -0.9146,-0.9879 -1.369,-2.404 -1.369,-4.253 0,-1.849 0.4572,-3.2623 1.3717,-4.2374 0.9168,-0.9751 2.2287,-1.4626 3.9406,-1.4626 1.7091,0 3.016,0.4927 3.9225,1.4756 0.904,0.9829 1.3586,2.3962 1.3586,4.24 z m -8.1204,0 c 0,1.2397 0.2365,2.1732 0.7065,2.8035 0.4729,0.6275 1.1768,0.9412 2.117,0.9412 1.881,0 2.8239,-1.2499 2.8239,-3.7447 0,-2.5025 -0.9376,-3.7551 -2.8081,-3.7551 -0.9404,0 -1.6471,0.3164 -2.125,0.9465 -0.4753,0.6303 -0.7143,1.5665 -0.7143,2.8086 z m 16.7968,5.5678 h -2.3223 v -11.1071 h 6.3776 v 1.9294 h -4.0553 v 2.863 h 3.7744 v 1.9244 h -3.7744 z m 12.6404,0 h -6.4085 v -11.1071 h 6.4085 v 1.9294 h -4.0498 v 2.4379 h 3.7669 v 1.9293 h -3.7669 v 2.8656 h 4.0498 z m 11.5521,-5.661 c 0,1.8282 -0.5222,3.2284 -1.5639,4.201 -1.0442,0.9726 -2.5484,1.46 -4.5173,1.46 h -3.151 v -11.1071 h 3.4939 c 1.8156,0 3.2264,0.4771 4.2316,1.4367 1.0026,0.957 1.5067,2.2925 1.5067,4.0094 z m -2.4524,0.062 c 0,-2.3857 -1.0544,-3.5787 -3.1639,-3.5787 h -1.2572 v 7.2328 h 1.013 c 2.2729,0 3.4081,-1.2189 3.4081,-3.6541 z m 11.1648,5.599 h -6.4083 v -11.1071 h 6.4083 v 1.9294 h -4.0496 v 2.4379 h 3.7666 v 1.9293 h -3.7666 v 2.8656 h 4.0496 z m 4.6786,-6.1773 h 0.7612 c 0.7453,0 1.2961,-0.1243 1.6521,-0.3707 0.3557,-0.2491 0.5326,-0.6381 0.5326,-1.1722 0,-0.5264 -0.1819,-0.8998 -0.5432,-1.123 -0.3637,-0.223 -0.9246,-0.3345 -1.6857,-0.3345 h -0.717 z m 0,1.914 v 4.2633 h -2.3588 v -11.1071 h 3.242 c 1.5118,0 2.6314,0.275 3.3561,0.8247 0.725,0.5497 1.0885,1.3822 1.0885,2.5027 0,0.6534 -0.1792,1.2342 -0.5404,1.7425 -0.3608,0.511 -0.8701,0.9078 -1.5299,1.1981 1.6757,2.4974 2.7665,4.1104 3.2731,4.8391 h -2.6186 l -2.6548,-4.2633 z m 14.7421,4.2633 -0.8054,-2.645 h -4.0577 l -0.8052,2.645 h -2.5432 l 3.9277,-11.1538 h 2.8835 l 3.9433,11.1538 z m -1.369,-4.6186 c -0.7455,-2.3962 -1.1665,-3.7525 -1.2601,-4.0664 -0.0932,-0.3137 -0.161,-0.56 -0.2024,-0.7441 -0.1662,0.6482 -0.6469,2.2508 -1.4367,4.8105 z m 5.3121,4.6186 v -11.1071 h 2.3587 v 9.1622 h 4.515 v 1.9449 z" />
            <path
               inkscape:connector-curvature="0"
               id="path42"
               style="fill:#ffffff;fill-rule:evenodd"
               d="m 236.7535,528.6181 v 3.6055 h -1.0099 v -8.6707 h 2.3828 c 1.0647,0 1.8513,0.2026 2.3604,0.6115 0.5091,0.4069 0.7645,1.0183 0.7645,1.8381 0,1.1459 -0.5819,1.9212 -1.748,2.3241 l 2.3586,3.897 h -1.1925 l -2.105,-3.6055 z m 0,-0.8665 h 1.3849 c 0.7119,0 1.2351,-0.1416 1.5677,-0.4231 0.3326,-0.2834 0.4988,-0.7085 0.4988,-1.2734 0,-0.5729 -0.1683,-0.9858 -0.507,-1.2389 -0.3387,-0.2531 -0.8821,-0.3806 -1.6323,-0.3806 h -1.3121 z m 7.3491,4.472 h -0.9856 v -6.5005 h 0.9856 z m -1.0687,-8.2618 c 0,-0.2247 0.0547,-0.3906 0.1662,-0.4958 0.1096,-0.1033 0.2495,-0.1559 0.4159,-0.1559 0.158,0 0.2939,0.0526 0.4094,0.1599 0.1157,0.1073 0.1723,0.2711 0.1723,0.4918 0,0.2207 -0.0566,0.3867 -0.1723,0.4961 -0.1155,0.1073 -0.2514,0.162 -0.4094,0.162 -0.1664,0 -0.3063,-0.0547 -0.4159,-0.162 -0.1115,-0.1094 -0.1662,-0.2754 -0.1662,-0.4961 z m 8.7805,5.0064 c 0,1.0588 -0.2676,1.8869 -0.8009,2.482 -0.5354,0.5952 -1.2736,0.8929 -2.2165,0.8929 -0.5819,0 -1.099,-0.1378 -1.5513,-0.4111 -0.4503,-0.2712 -0.7988,-0.6639 -1.0444,-1.1741 -0.2474,-0.5102 -0.369,-1.1074 -0.369,-1.7897 0,-1.0607 0.2655,-1.8867 0.7969,-2.4778 0.5292,-0.5912 1.2674,-0.8868 2.2084,-0.8868 0.9124,0 1.6344,0.3038 2.1719,0.9091 0.5373,0.6052 0.8049,1.4232 0.8049,2.4555 z m -4.96,0 c 0,0.8302 0.1662,1.4617 0.4988,1.897 0.3326,0.4353 0.8213,0.6519 1.4682,0.6519 0.6448,0 1.1356,-0.2166 1.4703,-0.6479 0.3343,-0.4332 0.5007,-1.0668 0.5007,-1.901 0,-0.8278 -0.1664,-1.4554 -0.5007,-1.8846 -0.3347,-0.4272 -0.8295,-0.6418 -1.4825,-0.6418 -0.6467,0 -1.1335,0.2106 -1.4621,0.6336 -0.3287,0.4231 -0.4927,1.0549 -0.4927,1.8928 z m 13.8199,-1.2875 h 2.9527 v 4.217 c -0.4603,0.1458 -0.9269,0.2571 -1.4035,0.332 -0.4746,0.0749 -1.026,0.1134 -1.6506,0.1134 -1.3161,0 -2.3381,-0.3907 -3.0721,-1.1722 -0.7322,-0.7814 -1.0993,-1.8747 -1.0993,-3.2836 0,-0.9009 0.1826,-1.6904 0.5437,-2.3687 0.3626,-0.678 0.884,-1.1964 1.5654,-1.5547 0.6814,-0.3563 1.4802,-0.5364 2.3949,-0.5364 0.9267,0 1.7906,0.17 2.5898,0.5101 l -0.3917,0.8908 c -0.7848,-0.332 -1.539,-0.498 -2.2631,-0.498 -1.0584,0 -1.8837,0.3137 -2.478,0.9412 -0.5941,0.6297 -0.8901,1.5021 -0.8901,2.6157 0,1.1722 0.2859,2.0587 0.8577,2.6642 0.5718,0.6053 1.4133,0.907 2.5226,0.907 0.6002,0 1.1884,-0.069 1.7643,-0.2066 v -2.6702 h -1.9427 z m 7.8581,-2.0771 c 0.2901,0 0.5497,0.0244 0.7788,0.073 l -0.1359,0.9131 c -0.2697,-0.0608 -0.507,-0.0892 -0.7138,-0.0892 -0.5253,0 -0.9774,0.2127 -1.3504,0.6397 -0.3754,0.4271 -0.562,0.9596 -0.562,1.5953 v 3.4881 h -0.9856 v -6.5005 h 0.8133 l 0.1136,1.2046 h 0.0465 c 0.2413,-0.4232 0.5333,-0.7491 0.8742,-0.9799 0.3406,-0.2287 0.7138,-0.3442 1.1213,-0.3442 z m 6.0006,6.62 -0.1948,-0.9252 h -0.0486 c -0.3246,0.407 -0.6488,0.6822 -0.9713,0.828 -0.3225,0.1437 -0.726,0.2167 -1.2087,0.2167 -0.6448,0 -1.1518,-0.166 -1.5189,-0.5001 -0.365,-0.332 -0.5497,-0.8036 -0.5497,-1.4171 0,-1.3119 1.0527,-2 3.1555,-2.063 l 1.1053,-0.0363 v -0.4029 c 0,-0.5102 -0.1096,-0.8868 -0.3307,-1.1295 -0.2188,-0.243 -0.5697,-0.3646 -1.0544,-0.3646 -0.5416,0 -1.1561,0.1662 -1.8413,0.4981 l -0.3023,-0.7531 c 0.3206,-0.1742 0.6713,-0.3118 1.0546,-0.409 0.3812,-0.0991 0.7646,-0.1498 1.1498,-0.1498 0.7748,0 1.3506,0.1721 1.7257,0.5163 0.3732,0.3442 0.5619,0.8968 0.5619,1.6559 v 4.4356 z m -2.2267,-0.6945 c 0.6125,0 1.0951,-0.1678 1.446,-0.504 0.3507,-0.336 0.5251,-0.8058 0.5251,-1.411 v -0.587 l -0.9854,0.0404 c -0.785,0.0284 -1.3507,0.1498 -1.6955,0.3665 -0.3469,0.2146 -0.5211,0.5505 -0.5211,1.0041 0,0.3562 0.1075,0.6276 0.3244,0.8138 0.215,0.1843 0.5171,0.2772 0.9065,0.2772 z m 9.4458,0.6945 v -4.2048 c 0,-0.5304 -0.1218,-0.9251 -0.3631,-1.1864 -0.2413,-0.261 -0.6185,-0.3906 -1.1335,-0.3906 -0.6812,0 -1.18,0.1822 -1.4985,0.5507 -0.3164,0.3684 -0.4746,0.9737 -0.4746,1.82 v 3.4111 h -0.9857 v -6.5005 h 0.8012 l 0.1603,0.8908 h 0.0486 c 0.2007,-0.3219 0.4845,-0.5689 0.8497,-0.745 0.3629,-0.1761 0.7704,-0.2653 1.2166,-0.2653 0.7847,0 1.375,0.1904 1.7703,0.567 0.3976,0.3785 0.5941,0.9818 0.5941,1.8118 v 4.2412 z m 7.4443,-0.8724 h -0.0526 c -0.4563,0.6618 -1.1375,0.9919 -2.0443,0.9919 -0.8514,0 -1.5147,-0.2916 -1.9872,-0.8727 -0.4723,-0.5808 -0.7096,-1.407 -0.7096,-2.4799 0,-1.0708 0.2373,-1.9029 0.7117,-2.4961 0.4765,-0.5931 1.1377,-0.8908 1.9851,-0.8908 0.8845,0 1.5617,0.3219 2.0321,0.9617 h 0.0772 l -0.0406,-0.4677 -0.0244,-0.4574 v -2.6459 h 0.9856 v 9.2293 h -0.8009 z m -1.9709,0.1659 c 0.6733,0 1.1599,-0.1821 1.4641,-0.5486 0.3021,-0.3644 0.4542,-0.9556 0.4542,-1.7695 v -0.2085 c 0,-0.921 -0.154,-1.577 -0.4603,-1.9717 -0.3082,-0.3927 -0.7969,-0.5892 -1.4704,-0.5892 -0.5777,0 -1.022,0.2249 -1.3281,0.6721 -0.3063,0.4496 -0.4603,1.0831 -0.4603,1.901 0,0.83 0.1521,1.4577 0.4563,1.8808 0.3061,0.4231 0.7544,0.6336 1.3445,0.6336 z m 7.7464,0.826 c -0.9633,0 -1.7218,-0.2937 -2.2772,-0.8788 -0.5579,-0.585 -0.8356,-1.3967 -0.8356,-2.4372 0,-1.0487 0.2575,-1.8808 0.7746,-2.4982 0.5171,-0.6154 1.2108,-0.9253 2.0826,-0.9253 0.8154,0 1.4623,0.2693 1.9367,0.8039 0.4767,0.5364 0.714,1.2429 0.714,2.1214 v 0.6217 h -4.4859 c 0.0202,0.763 0.2129,1.342 0.578,1.739 0.3671,0.3947 0.8842,0.593 1.5492,0.593 0.6997,0 1.3933,-0.1457 2.0787,-0.4392 v 0.8785 c -0.349,0.1498 -0.6772,0.2571 -0.9896,0.3219 -0.3103,0.0648 -0.6854,0.0993 -1.1255,0.0993 z m -0.2676,-5.9135 c -0.5232,0 -0.9391,0.1702 -1.2492,0.5101 -0.3125,0.3402 -0.4949,0.81 -0.5498,1.4113 h 3.4029 c 0,-0.6217 -0.1378,-1.0974 -0.4155,-1.4275 -0.2781,-0.3298 -0.6734,-0.4939 -1.1884,-0.4939 z m 11.936,4.9216 h -0.0528 c -0.4563,0.6618 -1.1375,0.9919 -2.044,0.9919 -0.8516,0 -1.515,-0.2916 -1.9873,-0.8727 -0.4725,-0.5808 -0.7098,-1.407 -0.7098,-2.4799 0,-1.0708 0.2373,-1.9029 0.7119,-2.4961 0.4763,-0.5931 1.1376,-0.8908 1.9852,-0.8908 0.8842,0 1.5614,0.3219 2.0318,0.9617 h 0.0772 l -0.0406,-0.4677 -0.0244,-0.4574 v -2.6459 h 0.9856 v 9.2293 h -0.8009 z m -1.971,0.1659 c 0.6732,0 1.1598,-0.1821 1.464,-0.5486 0.3021,-0.3644 0.4542,-0.9556 0.4542,-1.7695 v -0.2085 c 0,-0.921 -0.154,-1.577 -0.4603,-1.9717 -0.3082,-0.3927 -0.7969,-0.5892 -1.4701,-0.5892 -0.5779,0 -1.0223,0.2249 -1.3284,0.6721 -0.3063,0.4496 -0.4603,1.0831 -0.4603,1.901 0,0.83 0.1521,1.4577 0.4563,1.8808 0.3061,0.4231 0.7545,0.6336 1.3446,0.6336 z m 10.6157,-2.5489 c 0,1.0588 -0.2676,1.8869 -0.8009,2.482 -0.5352,0.5952 -1.2735,0.8929 -2.2166,0.8929 -0.5819,0 -1.099,-0.1378 -1.5511,-0.4111 -0.4502,-0.2712 -0.799,-0.6639 -1.0445,-1.1741 -0.2474,-0.5102 -0.369,-1.1074 -0.369,-1.7897 0,-1.0607 0.2655,-1.8867 0.7971,-2.4778 0.5291,-0.5912 1.2673,-0.8868 2.2081,-0.8868 0.9126,0 1.6347,0.3038 2.172,0.9091 0.5373,0.6052 0.8049,1.4232 0.8049,2.4555 z m -4.9601,0 c 0,0.8302 0.1664,1.4617 0.4988,1.897 0.3326,0.4353 0.8213,0.6519 1.4682,0.6519 0.6448,0 1.1356,-0.2166 1.4703,-0.6479 0.3345,-0.4332 0.5007,-1.0668 0.5007,-1.901 0,-0.8278 -0.1662,-1.4554 -0.5007,-1.8846 -0.3347,-0.4272 -0.8295,-0.6418 -1.4825,-0.6418 -0.6467,0 -1.1335,0.2106 -1.4621,0.6336 -0.3284,0.4231 -0.4927,1.0549 -0.4927,1.8928 z m 16.7848,3.2554 h -1.1539 l -4.7474,-7.2778 h -0.0465 c 0.0629,0.8543 0.0953,1.6378 0.0953,2.3482 v 4.9296 h -0.9328 v -8.6707 h 1.1396 l 4.7352,7.2475 h 0.0486 c -0.008,-0.1073 -0.0263,-0.4494 -0.0547,-1.0283 -0.0263,-0.5811 -0.0366,-0.9941 -0.0284,-1.2432 v -4.976 h 0.945 z m 7.8581,-3.2554 c 0,1.0588 -0.2676,1.8869 -0.8012,2.482 -0.5352,0.5952 -1.2734,0.8929 -2.2165,0.8929 -0.5817,0 -1.099,-0.1378 -1.5511,-0.4111 -0.4502,-0.2712 -0.799,-0.6639 -1.0446,-1.1741 -0.2474,-0.5102 -0.369,-1.1074 -0.369,-1.7897 0,-1.0607 0.2655,-1.8867 0.7972,-2.4778 0.5291,-0.5912 1.2673,-0.8868 2.2083,-0.8868 0.9124,0 1.6344,0.3038 2.1717,0.9091 0.5376,0.6052 0.8052,1.4232 0.8052,2.4555 z m -4.9601,0 c 0,0.8302 0.1662,1.4617 0.4988,1.897 0.3324,0.4353 0.8211,0.6519 1.468,0.6519 0.645,0 1.1358,-0.2166 1.4703,-0.6479 0.3345,-0.4332 0.5007,-1.0668 0.5007,-1.901 0,-0.8278 -0.1662,-1.4554 -0.5007,-1.8846 -0.3345,-0.4272 -0.8293,-0.6418 -1.4825,-0.6418 -0.6467,0 -1.1335,0.2106 -1.4619,0.6336 -0.3286,0.4231 -0.4927,1.0549 -0.4927,1.8928 z m 9.6586,-3.3646 c 0.2899,0 0.5496,0.0244 0.7787,0.073 l -0.1357,0.9131 c -0.2697,-0.0608 -0.507,-0.0892 -0.7141,-0.0892 -0.5251,0 -0.9774,0.2127 -1.3504,0.6397 -0.3753,0.4271 -0.5617,0.9596 -0.5617,1.5953 v 3.4881 h -0.9856 v -6.5005 h 0.8131 l 0.1136,1.2046 h 0.0467 c 0.2413,-0.4232 0.5333,-0.7491 0.8741,-0.9799 0.3404,-0.2287 0.7136,-0.3442 1.1213,-0.3442 z m 4.1003,5.9255 c 0.1744,0 0.3429,-0.012 0.5049,-0.0382 0.1622,-0.0266 0.2899,-0.0529 0.3854,-0.0791 v 0.7531 c -0.1075,0.0507 -0.2636,0.0932 -0.4725,0.1275 -0.2068,0.0324 -0.3955,0.0507 -0.5617,0.0507 -1.2593,0 -1.8881,-0.6642 -1.8881,-1.9881 v -3.8665 h -0.9326 v -0.4738 l 0.9326,-0.4111 0.4159,-1.3866 h 0.5697 v 1.5061 h 1.89 v 0.7654 h -1.89 v 3.8261 c 0,0.3907 0.0934,0.6903 0.28,0.9009 0.1864,0.2085 0.442,0.3136 0.7664,0.3136 z m 4.942,0.814 c -0.9633,0 -1.7217,-0.2937 -2.2773,-0.8788 -0.5577,-0.585 -0.8354,-1.3967 -0.8354,-2.4372 0,-1.0487 0.2575,-1.8808 0.7746,-2.4982 0.5171,-0.6154 1.2107,-0.9253 2.0825,-0.9253 0.8152,0 1.4623,0.2693 1.9365,0.8039 0.4768,0.5364 0.7141,1.2429 0.7141,2.1214 v 0.6217 h -4.4857 c 0.0202,0.763 0.2129,1.342 0.5779,1.739 0.3671,0.3947 0.8842,0.593 1.5492,0.593 0.6997,0 1.3931,-0.1457 2.0788,-0.4392 v 0.8785 c -0.3491,0.1498 -0.6775,0.2571 -0.9897,0.3219 -0.3105,0.0648 -0.6856,0.0993 -1.1255,0.0993 z m -0.2676,-5.9135 c -0.5234,0 -0.9391,0.1702 -1.2492,0.5101 -0.3124,0.3402 -0.4948,0.81 -0.5497,1.4113 h 3.4028 c 0,-0.6217 -0.1378,-1.0974 -0.4157,-1.4275 -0.2779,-0.3298 -0.6732,-0.4939 -1.1882,-0.4939 z" />
            <path
               inkscape:connector-curvature="0"
               id="path44"
               style="fill:#ffffff;fill-rule:evenodd"
               d="m 279.0075,543.8684 c 0,0.5861 -0.2183,1.0365 -0.6557,1.3539 -0.4378,0.3195 -1.0502,0.4782 -1.8412,0.4782 -0.834,0 -1.486,-0.1333 -1.955,-0.3978 v -0.8836 c 0.3041,0.1529 0.6282,0.2741 0.9756,0.3625 0.3474,0.0879 0.6807,0.1312 1.0031,0.1312 0.4982,0 0.8811,-0.0783 1.1498,-0.2371 0.2691,-0.1587 0.4028,-0.4015 0.4028,-0.7269 0,-0.2449 -0.1062,-0.4545 -0.3183,-0.629 -0.2141,-0.1746 -0.6278,-0.3803 -1.2464,-0.6174 -0.5869,-0.2174 -1.0031,-0.4074 -1.2501,-0.5703 -0.2475,-0.1624 -0.432,-0.3466 -0.5516,-0.5544 -0.122,-0.2054 -0.1808,-0.4524 -0.1808,-0.7407 0,-0.5132 0.2083,-0.9169 0.6261,-1.2131 0.4183,-0.2974 0.9915,-0.4465 1.7197,-0.4465 0.679,0 1.3405,0.1391 1.9904,0.4136 l -0.3399,0.7757 c -0.6337,-0.2604 -1.2073,-0.3899 -1.7193,-0.3899 -0.4532,0 -0.7948,0.0704 -1.0247,0.2116 -0.2296,0.1412 -0.3454,0.337 -0.3454,0.5861 0,0.1683 0.0433,0.3116 0.1296,0.4312 0.0862,0.1174 0.2258,0.2312 0.4182,0.337 0.1904,0.1075 0.5595,0.2624 1.1031,0.4661 0.7478,0.2704 1.2522,0.5449 1.5155,0.8211 0.2629,0.2741 0.3945,0.6211 0.3945,1.0385 z m -10.3973,-4.5757 v 4.0821 c 0,0.5132 0.1158,0.8952 0.3495,1.1481 0.2354,0.2528 0.6007,0.3782 1.0993,0.3782 0.6591,0 1.1402,-0.1783 1.4464,-0.539 0.3041,-0.3604 0.4574,-0.9465 0.4574,-1.7613 v -3.3081 h 0.9539 v 6.2924 h -0.7873 l -0.1391,-0.8448 h -0.0513 c -0.1962,0.3116 -0.4669,0.5487 -0.8144,0.7132 -0.3457,0.1645 -0.7423,0.247 -1.1876,0.247 -0.7657,0 -1.3406,-0.1824 -1.7213,-0.5465 -0.3808,-0.3624 -0.5732,-0.9448 -0.5732,-1.7442 v -4.1171 z m -5.3214,0.6961 c -0.6436,0 -1.1089,0.1763 -1.3955,0.5328 -0.2883,0.3566 -0.4357,0.9228 -0.4437,1.6988 v 0.2137 c 0,0.8836 0.1471,1.5168 0.4437,1.8967 0.2945,0.3804 0.7677,0.5703 1.4193,0.5703 0.5453,0 0.9714,-0.2195 1.2797,-0.6607 0.3083,-0.4386 0.4632,-1.046 0.4632,-1.8179 0,-0.7861 -0.1549,-1.3872 -0.4632,-1.8067 -0.3083,-0.4195 -0.7419,-0.627 -1.3035,-0.627 z m 0.1396,5.7117 c -0.4104,0 -0.7853,-0.0766 -1.1248,-0.2274 -0.3395,-0.1508 -0.624,-0.3837 -0.854,-0.6974 h -0.0687 c 0.0454,0.3662 0.0687,0.7153 0.0687,1.0444 v 2.5886 h -0.9539 v -9.116 h 0.7756 l 0.1333,0.8624 h 0.045 c 0.2454,-0.345 0.5299,-0.5937 0.8561,-0.7465 0.3258,-0.1529 0.7007,-0.2312 1.1227,-0.2312 0.836,0 1.4797,0.2861 1.9354,0.8564 0.4532,0.5699 0.6807,1.3697 0.6807,2.4003 0,1.0327 -0.2316,1.8359 -0.6928,2.4083 -0.4632,0.5719 -1.1027,0.8581 -1.9233,0.8581 z m -5.855,-0.1154 v -4.0937 c 0,-0.5015 -0.1062,-0.8777 -0.322,-1.1285 -0.2141,-0.2487 -0.5474,-0.3741 -0.9994,-0.3741 -0.5944,0 -1.0339,0.1683 -1.3172,0.5091 -0.2841,0.3412 -0.4258,0.8661 -0.4258,1.5738 v 3.5134 h -0.9535 v -4.0937 c 0,-0.5015 -0.1083,-0.8777 -0.3241,-1.1285 -0.2141,-0.2487 -0.5495,-0.3741 -1.0052,-0.3741 -0.5982,0 -1.036,0.1779 -1.3147,0.5349 -0.277,0.3583 -0.4162,0.9444 -0.4162,1.7596 v 3.3018 h -0.9539 v -6.2924 h 0.7752 l 0.155,0.8624 h 0.0475 c 0.1783,-0.3075 0.4336,-0.5466 0.7611,-0.7191 0.3278,-0.1724 0.6948,-0.2586 1.1014,-0.2586 0.9852,0 1.6288,0.3565 1.9312,1.0681 h 0.0471 c 0.1866,-0.3296 0.4595,-0.5878 0.8165,-0.7799 0.3553,-0.192 0.7615,-0.2882 1.2189,-0.2882 0.7128,0 1.2468,0.1841 1.6017,0.5486 0.3533,0.3666 0.532,0.9502 0.532,1.7538 v 4.1053 z m -12.8627,-0.6723 c 0.5928,0 1.0598,-0.1625 1.3997,-0.4878 0.3396,-0.3254 0.5083,-0.7799 0.5083,-1.366 v -0.5682 l -0.954,0.0392 c -0.7598,0.0275 -1.3072,0.1449 -1.6409,0.3549 -0.3358,0.2074 -0.5045,0.5328 -0.5045,0.9719 0,0.3449 0.1042,0.6073 0.3141,0.7877 0.2079,0.1783 0.5008,0.2683 0.8773,0.2683 z m 2.1554,0.6723 -0.1887,-0.8956 h -0.0471 c -0.3141,0.3941 -0.6282,0.6603 -0.9402,0.8015 -0.312,0.1391 -0.7023,0.2095 -1.1697,0.2095 -0.6241,0 -1.1148,-0.1608 -1.4701,-0.484 -0.3533,-0.3212 -0.532,-0.7778 -0.532,-1.3714 0,-1.2701 1.0185,-1.9363 3.0543,-1.9971 l 1.0694,-0.035 v -0.3899 c 0,-0.4936 -0.1058,-0.8585 -0.3195,-1.0935 -0.2121,-0.2349 -0.552,-0.3528 -1.0211,-0.3528 -0.524,0 -1.1185,0.1608 -1.7821,0.4819 l -0.2924,-0.729 c 0.3099,-0.1683 0.6499,-0.3016 1.0206,-0.3957 0.3691,-0.0958 0.7403,-0.1446 1.1131,-0.1446 0.7498,0 1.3072,0.1662 1.6701,0.4995 0.3611,0.3329 0.544,0.8682 0.544,1.603 v 4.2932 z m -7.5609,-7.6404 c -0.9248,0 -1.6529,0.3058 -2.1887,0.9211 -0.534,0.6132 -0.8027,1.4538 -0.8027,2.5219 0,1.0994 0.2591,1.9475 0.7732,2.5474 0.5165,0.5973 1.2526,0.8973 2.2062,0.8973 0.5869,0 1.2564,-0.1058 2.0062,-0.3154 v 0.8561 c -0.5811,0.2179 -1.3014,0.3274 -2.1554,0.3274 -1.2385,0 -2.1941,-0.3761 -2.8677,-1.1268 -0.6711,-0.7482 -1.0089,-1.8142 -1.0089,-3.196 0,-0.8656 0.1633,-1.6242 0.4869,-2.2749 0.3241,-0.6507 0.7911,-1.1523 1.4035,-1.5026 0.6103,-0.3528 1.331,-0.5295 2.1591,-0.5295 0.8815,0 1.6526,0.1608 2.3103,0.482 l -0.4124,0.839 c -0.6377,-0.2979 -1.2739,-0.447 -1.9096,-0.447 z" />
          </g>
        </g>
        <path
           sodipodi:nodetypes="cscccccccccsccccscscccccccccccscccccccccccscccccccccssccccccccssccccccsccccssccccccccssccccccsccccccccccccccccccccsscccccssccccccccccccccccccccccccccccccccccccccsssssccscccsscsccccscccscssssscsssccsccccccscscccccsccccccccscscssccccccccccsssssssccccccccccccsscssccscccssssccccscssccsccccccccscssccsccscssscsccccscscccccccccsssccccccccccsccccccscccccccsccccccccscccccssccsssccsccssssssccscssssssssccsssccccssccccssccccsssscccccsscscscssscccsscssssccccccscscccscssscccscccscsccccsccccccsccccscccccccccccccsscccsccccscccsscccssccccccccscccccscsccscscccccsccscccccccccccccccccccccccccccccccssccccccccscsscccscscc"
           inkscape:connector-curvature="0"
           id="path39"
           d="m 98.888705,194.57212 c -0.0189,-0.019 -0.03446,-0.67264 -0.03446,-1.45268 v -1.41825 h 0.169945 0.169936 l -0.01281,1.43839 -0.01281,1.43839 -0.122681,0.0143 c -0.06751,0.008 -0.138185,-0.002 -0.157135,-0.0202 z m 3.094165,-1.7e-4 c -0.019,-0.0188 -0.0343,-0.67521 -0.0343,-1.45858 v -1.42433 l 0.54465,0.0209 c 0.59982,0.0229 0.84791,0.105 1.01681,0.33632 0.11927,0.16336 0.16128,0.52829 0.0826,0.71811 -0.0686,0.16565 -0.3545,0.43571 -0.46125,0.43571 -0.10412,0 -0.0867,0.0649 0.0524,0.19568 0.0678,0.0638 0.2456,0.31229 0.39505,0.55237 0.14945,0.24008 0.30206,0.47242 0.33913,0.51631 0.0837,0.0992 0.0223,0.14183 -0.15757,0.1092 -0.19033,-0.0346 -0.1733,-0.0159 -0.47106,-0.51409 -0.35891,-0.60051 -0.45493,-0.68583 -0.7746,-0.68832 l -0.25203,-0.002 -0.0241,0.60437 c -0.0225,0.56229 -0.0311,0.60535 -0.12288,0.61848 -0.0542,0.008 -0.1141,-0.002 -0.13296,-0.0202 z m 1.04377,-1.57516 c 0.28894,-0.11139 0.37929,-0.62406 0.1478,-0.83859 -0.11458,-0.10622 -0.17012,-0.11854 -0.53184,-0.11854 h -0.40391 v 0.50473 0.50477 l 0.18131,0.0194 c 0.21761,0.0231 0.42353,-0.002 0.60664,-0.0717 z m 1.39096,1.55898 c -0.037,-0.0229 -0.0492,-0.45561 -0.0402,-1.43159 l 0.0128,-1.3988 0.19918,-0.0146 0.19918,-0.0145 0.76779,1.2097 c 0.42229,0.66536 0.77869,1.21041 0.79199,1.21125 0.0133,6.7e-4 0.0174,-0.54242 0.01,-1.20723 l -0.0152,-1.20878 h 0.17228 0.17229 v 1.42631 1.42628 l -0.20548,-1.7e-4 -0.2055,-1.9e-4 -0.28949,-0.44699 c -0.15923,-0.24586 -0.5124,-0.7928 -0.78483,-1.21542 l -0.49533,-0.7684 -0.013,1.22771 c -0.0129,1.22143 -0.0135,1.22776 -0.11777,1.23303 -0.0576,0.002 -0.12871,-0.01 -0.15789,-0.0275 z m 7.4632,-0.0693 c -0.61381,-0.2844 -0.90829,-1.11681 -0.65252,-1.84454 0.12881,-0.36646 0.33472,-0.60759 0.67271,-0.78772 0.25777,-0.13738 0.32904,-0.15295 0.70012,-0.15295 0.549,0 0.66118,0.0445 0.66118,0.26226 v 0.16794 l -0.18132,-0.0773 c -0.46433,-0.19819 -1.09101,-0.0477 -1.36266,0.32732 -0.19579,0.27031 -0.26077,0.52967 -0.23254,0.9284 0.0457,0.64648 0.44294,1.0236 1.07128,1.01722 0.16185,-0.002 0.37851,-0.0382 0.48148,-0.0814 0.23676,-0.0993 0.22376,-0.10269 0.22376,0.0587 0,0.19256 -0.17132,0.26098 -0.70117,0.28003 -0.37531,0.0134 -0.46899,1e-5 -0.68032,-0.0979 z m 3.85997,0.0574 c -0.11382,-0.13937 -1.5115,-2.32698 -1.5115,-2.36576 0,-0.023 -0.0162,-0.0419 -0.0362,-0.0419 -0.0198,-2e-5 -0.0298,0.54391 -0.0217,1.20874 l 0.0144,1.20876 h -0.17159 -0.17158 v -1.4263 -1.42629 h 0.20803 0.20803 l 0.76752,1.20872 c 0.42215,0.66481 0.77999,1.20874 0.79521,1.20877 0.0153,1e-5 0.0216,-0.54535 0.014,-1.21192 l -0.0137,-1.21194 0.15878,0.0154 0.15876,0.0153 0.0128,1.4142 0.0128,1.41421 h -0.11764 c -0.0648,0 -0.14859,0.0119 -0.1864,0.0263 -0.0377,0.0144 -0.0917,-0.002 -0.11987,-0.0363 z m 0.85761,0.003 c 0,-0.0218 0.17125,-0.48081 0.38059,-1.01981 0.20931,-0.539 0.45278,-1.17144 0.54104,-1.40544 l 0.16047,-0.42541 0.1663,0.0143 0.16632,0.0144 0.52313,1.35866 c 0.28774,0.74727 0.52968,1.38848 0.53763,1.42494 0.01,0.0458 -0.0364,0.0667 -0.1502,0.0676 -0.16229,0.002 -0.16687,-0.004 -0.31426,-0.39816 l -0.14958,-0.39949 -0.62256,0.0127 -0.62256,0.0127 -0.13288,0.36263 c -0.12704,0.34667 -0.14059,0.36387 -0.30817,0.39127 -0.0964,0.0158 -0.17527,0.011 -0.17527,-0.0112 z m 1.74056,-1.07705 c 0,-0.011 -0.0636,-0.19052 -0.14133,-0.39887 -0.0778,-0.20837 -0.19062,-0.51808 -0.25087,-0.68828 l -0.10952,-0.30942 -0.0829,0.2369 c -0.0456,0.1303 -0.15015,0.42184 -0.23239,0.64787 -0.0822,0.22603 -0.14962,0.43817 -0.14975,0.47141 -1.8e-4,0.0443 0.12855,0.0605 0.48325,0.0605 0.26592,0 0.48348,-0.01 0.48348,-0.02 z m 1.45048,-0.15338 v -1.27705 h -0.41098 -0.41095 v -0.16922 -0.16923 h 0.96697 0.96698 v 0.16923 0.16922 h -0.38598 -0.38598 l -0.0129,1.26916 -0.0129,1.26916 -0.15713,0.008 -0.15713,0.008 z m -19.823137,-0.1892 v -1.4263 h 0.701057 0.70107 v 0.16923 0.16922 h -0.55601 -0.55603 v 0.48185 0.48187 l 0.51975,0.0138 0.51976,0.0137 0.0151,0.13131 0.0151,0.1313 -0.5228,0.0138 -0.5228,0.0138 -0.0136,0.61644 -0.0136,0.61646 h -0.14359 -0.143612 z m 8.509437,0.31428 c 0,-0.0909 0.0323,-0.0967 0.53185,-0.0967 0.49961,0 0.53184,0.007 0.53184,0.0967 0,0.0909 -0.0323,0.0966 -0.53184,0.0966 -0.49961,0 -0.53185,-0.007 -0.53185,-0.0966 z m -7.6345,-3.7357 c -0.39706,-0.20404 -0.44527,-0.90094 -0.0833,-1.20352 0.14725,-0.12306 0.38404,-0.15859 0.54409,-0.0816 0.18987,0.0912 0.36432,0.36657 0.34665,0.54696 l -0.0144,0.14661 -0.4714,0.0139 c -0.25927,0.008 -0.47139,0.0261 -0.47139,0.041 0,0.0149 0.0347,0.10016 0.0769,0.18935 0.10512,0.22159 0.32983,0.29678 0.57753,0.19329 0.22319,-0.0932 0.21582,-0.0939 0.21582,0.0195 0,0.16312 -0.48775,0.25417 -0.72058,0.13452 z m 0.59724,-0.86956 c -0.11548,-0.37893 -0.61334,-0.36753 -0.71371,0.0163 -0.0224,0.0854 0.006,0.0925 0.36134,0.0925 0.37739,0 0.38483,-0.002 0.35237,-0.10875 z m 0.72863,0.81518 c -0.11399,-0.11401 -0.12181,-0.15291 -0.12181,-0.60749 v -0.4857 h -0.12087 c -0.0751,0 -0.12087,-0.0273 -0.12087,-0.0725 0,-0.0451 0.0456,-0.0725 0.12087,-0.0725 0.10589,0 0.12087,-0.0209 0.12087,-0.16923 0,-0.093 0.01,-0.16922 0.0203,-0.16922 0.0112,0 0.0546,-0.0132 0.0967,-0.0293 0.062,-0.0238 0.0766,0.008 0.0766,0.16923 0,0.19471 0.003,0.19856 0.16922,0.19856 0.12927,0 0.16922,0.0201 0.16922,0.0851 0,0.0639 -0.0392,0.0849 -0.15714,0.0846 l -0.15713,-5.4e-4 -0.0142,0.43513 c -0.0129,0.39275 -0.004,0.44315 0.0869,0.51734 0.0556,0.0452 0.135,0.0692 0.17628,0.0533 0.0543,-0.0209 0.0703,-0.003 0.0576,0.0628 -0.0278,0.14549 -0.25708,0.14565 -0.40244,3.8e-4 z m 1.01441,0.0722 c -0.29772,-0.1317 -0.44196,-0.56089 -0.31641,-0.94136 0.14626,-0.44314 0.77544,-0.54068 1.08841,-0.16874 0.10324,0.12274 0.12245,0.19423 0.12245,0.45679 0,0.28407 -0.0138,0.32613 -0.15713,0.4813 -0.12984,0.14049 -0.19914,0.17391 -0.39888,0.1924 -0.13295,0.0123 -0.28527,0.003 -0.33844,-0.0203 z m 0.59228,-0.27545 c 0.16084,-0.17999 0.15537,-0.60599 -0.01,-0.77126 -0.27547,-0.27548 -0.75162,-0.0488 -0.75162,0.35794 0,0.28366 0.0755,0.43734 0.25348,0.51592 0.19857,0.0877 0.36871,0.0533 0.50803,-0.10258 z m 2.35701,0.26101 c -0.13849,-0.0786 -0.16765,-0.13695 -0.16848,-0.33764 -0.002,-0.26552 0.2036,-0.42561 0.54634,-0.42725 0.24453,-0.002 0.29902,-0.0566 0.21881,-0.22305 -0.0593,-0.12302 -0.0917,-0.13852 -0.28345,-0.13613 -0.11909,0.002 -0.2568,0.0209 -0.30603,0.0433 -0.072,0.0326 -0.0861,0.0226 -0.0718,-0.0511 0.0224,-0.11623 0.34889,-0.22849 0.55362,-0.19035 0.28045,0.0523 0.33111,0.16548 0.34925,0.78051 0.0157,0.53161 0.0127,0.55107 -0.0846,0.55107 -0.0574,0 -0.10082,-0.0313 -0.10082,-0.0725 0,-0.096 -0.0332,-0.0916 -0.18022,0.0241 -0.13619,0.10709 -0.32481,0.12266 -0.47251,0.0389 z m 0.52401,-0.23087 c 0.0488,-0.0469 0.0923,-0.15879 0.0967,-0.24879 0.008,-0.15905 0.003,-0.16317 -0.16139,-0.14753 -0.27909,0.0265 -0.4092,0.11154 -0.42547,0.27796 -0.0245,0.25055 0.27637,0.32321 0.49016,0.11836 z m 1.6644,0.21559 c -0.4135,-0.23255 -0.35624,-1.04438 0.0886,-1.25545 0.15015,-0.0712 0.20828,-0.0758 0.36503,-0.029 0.10258,0.0307 0.18644,0.0767 0.18644,0.10225 0,0.0255 0.0217,0.0464 0.0484,0.0464 0.0281,0 0.0483,-0.16117 0.0483,-0.3868 0,-0.35456 0.008,-0.38679 0.0967,-0.38679 0.0934,0 0.0968,0.0323 0.0968,0.96698 0,0.93476 -0.003,0.96698 -0.0968,0.96698 -0.067,0 -0.0967,-0.0323 -0.0967,-0.10511 v -0.10512 l -0.11611,0.10909 c -0.14782,0.13885 -0.44461,0.17542 -0.62061,0.0765 z m 0.61262,-0.21819 c 0.0646,-0.0634 0.0997,-0.17842 0.11351,-0.37166 0.0167,-0.23301 0.002,-0.30217 -0.0848,-0.41286 -0.14169,-0.17953 -0.418,-0.18605 -0.57992,-0.0137 -0.13567,0.14441 -0.18252,0.52147 -0.0872,0.70168 0.13052,0.24673 0.43813,0.29322 0.63851,0.0965 z m 0.99505,0.20657 c -0.215,-0.10787 -0.28921,-0.25944 -0.28987,-0.59221 -6.8e-4,-0.33256 0.12618,-0.5574 0.37255,-0.66035 0.36866,-0.15403 0.73798,0.10975 0.7384,0.5274 l 1.7e-4,0.18129 h -0.45931 c -0.44852,0 -0.45931,0.002 -0.45931,0.11246 0,0.1237 0.15947,0.294 0.32108,0.3429 0.057,0.0172 0.19291,5.4e-4 0.30218,-0.0371 0.18404,-0.0635 0.19868,-0.062 0.19868,0.0179 0,0.0533 -0.0582,0.10654 -0.15226,0.13939 -0.21507,0.0749 -0.37771,0.066 -0.57231,-0.0316 z m 0.62787,-0.83396 c 0,-0.27088 -0.39536,-0.38262 -0.60657,-0.17141 -0.21358,0.21359 -0.16397,0.26812 0.24396,0.26812 0.33038,0 0.36261,-0.009 0.36261,-0.0967 z m 4.05756,0.8288 c -0.10676,-0.0863 -0.11925,-0.13879 -0.14129,-0.59469 -0.023,-0.47716 -0.0292,-0.50074 -0.13574,-0.51585 -0.13632,-0.0194 -0.11421,-0.12335 0.0307,-0.14467 0.0835,-0.0122 0.105,-0.0483 0.105,-0.17614 0,-0.10192 0.028,-0.17141 0.0766,-0.19003 0.11593,-0.0445 0.11692,-0.0431 0.11692,0.16405 0,0.18879 0.003,0.19341 0.16922,0.19341 0.22438,0 0.23478,0.13258 0.0121,0.15407 l -0.15713,0.0152 -0.0142,0.43515 c -0.0129,0.39275 -0.004,0.44313 0.0869,0.51732 0.0556,0.0452 0.13499,0.0692 0.17628,0.0533 0.0543,-0.0209 0.0703,-0.003 0.0576,0.0628 -0.0243,0.12821 -0.23849,0.14276 -0.38294,0.0259 z m 0.93761,0.0189 c -0.20095,-0.0875 -0.30535,-0.2981 -0.30513,-0.6158 1.9e-4,-0.32351 0.13021,-0.54911 0.37539,-0.65156 0.37118,-0.15507 0.73646,0.10445 0.73646,0.52335 v 0.18624 h -0.45931 c -0.25267,0 -0.45932,0.0203 -0.45932,0.0452 0,0.13307 0.1107,0.29799 0.24751,0.36874 0.15221,0.0787 0.25801,0.0677 0.56233,-0.0585 0.0339,-0.0141 0.0605,0.01 0.0605,0.0539 0,0.0927 -0.27529,0.21998 -0.46986,0.21725 -0.0739,-0.002 -0.20381,-0.032 -0.2885,-0.069 z m 0.61332,-0.84786 c 0,-0.20787 -0.27407,-0.34887 -0.5055,-0.26005 -0.068,0.026 -0.21973,0.25415 -0.21973,0.33017 0,0.0147 0.16318,0.0266 0.36262,0.0266 0.33039,0 0.36261,-0.009 0.36261,-0.0967 z m 2.06693,0.8878 c -0.0496,-0.0143 -0.0846,-0.0716 -0.0846,-0.13806 0,-0.1128 0.002,-0.11301 0.19389,-0.0372 0.15357,0.0603 0.21923,0.0647 0.31564,0.0207 0.24741,-0.11273 0.19739,-0.29214 -0.11823,-0.42402 -0.37828,-0.15805 -0.50038,-0.43258 -0.28252,-0.63526 0.19932,-0.18545 0.71315,-0.1829 0.71315,0.003 0,0.0501 -0.0566,0.0615 -0.22967,0.0456 -0.46552,-0.0423 -0.5306,0.22434 -0.10346,0.42438 0.39145,0.18334 0.48775,0.41271 0.26223,0.62459 -0.11897,0.11173 -0.47031,0.17274 -0.66639,0.1157 z m 1.22161,-0.0291 c -0.14447,-0.0759 -0.21995,-0.26614 -0.17567,-0.44259 0.0397,-0.15824 0.29024,-0.31913 0.49727,-0.31938 0.0842,-1e-4 0.18761,-0.0134 0.22967,-0.0295 0.0965,-0.037 0.0995,-0.22978 0.004,-0.30834 -0.0726,-0.0603 -0.36237,-0.0488 -0.52067,0.0208 -0.0646,0.0284 -0.0846,0.0145 -0.0846,-0.0584 0,-0.12778 0.34773,-0.23027 0.57843,-0.17048 0.25637,0.0664 0.34022,0.27606 0.34022,0.85061 0,0.46581 -0.002,0.47519 -0.10875,0.45893 -0.0598,-0.01 -0.10336,-0.0433 -0.0967,-0.0758 0.0164,-0.0805 -0.036,-0.0745 -0.13524,0.0153 -0.115,0.10401 -0.38563,0.13428 -0.52876,0.0589 z m 0.5371,-0.22328 c 0.0856,-0.0868 0.15698,-0.37699 0.10104,-0.41154 -0.082,-0.0507 -0.5482,0.0834 -0.59525,0.17138 -0.15229,0.28459 0.25484,0.48246 0.49417,0.24016 z m 0.97483,0.20428 c -0.15649,-0.0771 -0.35235,-0.39484 -0.35235,-0.5715 0,-0.19137 0.12063,-0.47328 0.24859,-0.58094 0.18268,-0.15374 0.46605,-0.19682 0.68702,-0.10446 0.49352,0.2062 0.49871,1.06095 0.008,1.26611 -0.21422,0.0896 -0.39656,0.0867 -0.59095,-0.01 z m 0.4883,-0.11253 c 0.1562,-0.0594 0.27139,-0.28339 0.27139,-0.52781 0,-0.43282 -0.4743,-0.66103 -0.75173,-0.36167 -0.2277,0.24569 -0.14566,0.77263 0.1381,0.88693 0.14139,0.057 0.19801,0.0574 0.34224,0.002 z m -24.289965,-0.77698 v -0.92892 l 0.472359,0.0189 c 0.384648,0.0154 0.505201,0.0392 0.649274,0.12831 0.506976,0.31332 0.492421,1.20534 -0.02525,1.54821 -0.168919,0.11186 -0.253887,0.13104 -0.645447,0.14558 l -0.45091,0.0168 z m 0.92685,0.64941 c 0.450712,-0.23307 0.479309,-1.03977 0.04567,-1.28787 -0.07093,-0.0405 -0.269754,-0.0767 -0.452754,-0.0824 l -0.32636,-0.01 v 0.72051 c 0,0.39628 0.01633,0.73684 0.03627,0.75679 0.05127,0.0512 0.542639,-0.0171 0.697193,-0.097 z m 0.931454,0.20692 c -0.01339,-0.0348 -0.01814,-0.32281 -0.01058,-0.64004 0.01197,-0.50449 0.02431,-0.57882 0.09831,-0.59301 0.07719,-0.0149 0.0846,0.041 0.0846,0.64004 0,0.55709 -0.01121,0.65626 -0.07405,0.65626 -0.04073,0 -0.08497,-0.0285 -0.09832,-0.0634 z m 0.655844,-0.58946 c 0,-0.62047 0.0047,-0.65271 0.09671,-0.65271 0.0715,0 0.0967,0.0323 0.0967,0.12356 v 0.12358 l 0.108795,-0.12109 c 0.157012,-0.17475 0.374712,-0.19128 0.374712,-0.0285 0,0.0794 -0.022,0.0921 -0.11844,0.0679 -0.0878,-0.0221 -0.15029,0.002 -0.241754,0.0937 -0.114952,0.11494 -0.123307,0.15458 -0.123307,0.58481 0,0.42929 -0.0066,0.46153 -0.0967,0.46153 -0.0919,0 -0.09671,-0.0323 -0.09671,-0.65273 z m 4.786557,0 c 0,-0.62047 0.004,-0.65271 0.0967,-0.65271 0.0715,0 0.0967,0.0323 0.0967,0.12356 v 0.12358 l 0.10876,-0.12109 c 0.15906,-0.17704 0.3747,-0.19096 0.3747,-0.0241 0,0.0745 -0.0213,0.0936 -0.0793,0.0714 -0.26005,-0.0998 -0.40416,0.15648 -0.40416,0.71876 0,0.38113 -0.008,0.41337 -0.0967,0.41337 -0.0919,0 -0.0967,-0.0323 -0.0967,-0.65271 z m 0.91865,0 c 0,-0.62047 0.004,-0.65271 0.0967,-0.65271 0.0919,0 0.0967,0.0323 0.0967,0.65271 0,0.62048 -0.004,0.65271 -0.0967,0.65271 -0.0919,0 -0.0967,-0.0323 -0.0967,-0.65271 z m 6.47877,-0.26592 v -0.91864 h 0.45931 c 0.4271,0 0.45934,0.007 0.45934,0.0967 0,0.0881 -0.0323,0.0967 -0.36494,0.0967 h -0.36492 l 0.0144,0.30217 0.0144,0.30217 0.32635,0.0143 c 0.28671,0.0126 0.32636,0.0258 0.32636,0.10875 0,0.0848 -0.0349,0.0944 -0.34065,0.0944 h -0.34058 l 0.0143,0.32637 0.0143,0.32635 0.3747,0.0141 c 0.28958,0.011 0.37471,0.0301 0.37471,0.0846 0,0.057 -0.0922,0.0704 -0.4835,0.0704 h -0.48349 z m 1.3773,0.60273 0.2208,-0.31589 -0.21787,-0.33681 c -0.21105,-0.32623 -0.21428,-0.33682 -0.10258,-0.33682 0.0893,0 0.1491,0.0599 0.26535,0.2659 0.13575,0.24055 0.24595,0.33937 0.24595,0.22058 0,-0.025 0.0598,-0.14393 0.13296,-0.2644 0.0937,-0.15426 0.16524,-0.21948 0.24213,-0.22056 0.10214,-0.002 0.0949,0.0199 -0.11325,0.33298 l -0.22245,0.33451 0.19788,0.29138 c 0.10886,0.16025 0.19787,0.30346 0.19787,0.3182 0,0.0148 -0.0413,0.0268 -0.0917,0.0268 -0.0571,0 -0.15019,-0.0912 -0.24679,-0.24174 -0.0854,-0.13296 -0.16918,-0.24172 -0.18635,-0.24171 -0.0172,5e-5 -0.0923,0.10886 -0.16697,0.24176 -0.10599,0.18866 -0.16209,0.24169 -0.25577,0.24169 -0.11753,0 -0.11541,-0.007 0.10082,-0.31589 z m 3.45761,-0.33681 c 0,-0.62047 0.004,-0.65271 0.0967,-0.65271 0.0645,0 0.0967,0.0323 0.0967,0.0966 0,0.11182 0.0869,0.13003 0.12667,0.0264 0.0375,-0.0976 0.3206,-0.18248 0.47742,-0.14312 0.23393,0.0587 0.31416,0.27047 0.31436,0.82978 1.8e-4,0.46339 -0.007,0.49558 -0.0965,0.49558 -0.0896,0 -0.0967,-0.0323 -0.0967,-0.43201 0,-0.50866 -0.0478,-0.66595 -0.21586,-0.70809 -0.35145,-0.0883 -0.50937,0.14388 -0.50937,0.74852 0,0.35934 -0.008,0.39158 -0.0968,0.39158 -0.0919,0 -0.0967,-0.0323 -0.0967,-0.65273 z m 2.70756,-0.91549 c 0,-0.0116 0.0213,-0.0768 0.0472,-0.14504 0.0543,-0.14298 0.15486,-0.15589 0.40379,-0.0519 0.16404,0.0685 0.17632,0.067 0.24653,-0.0333 0.0951,-0.13581 0.15701,-0.0762 0.0849,0.0819 -0.0621,0.13655 -0.1791,0.1532 -0.43244,0.0615 -0.14388,-0.0519 -0.17038,-0.049 -0.21133,0.0241 -0.0414,0.0742 -0.13871,0.11802 -0.13871,0.0626 z m -20.395108,-0.22894 c 0.01069,-0.0751 0.04814,-0.11265 0.112653,-0.11265 0.143987,0 0.129603,0.18873 -0.01595,0.20936 -0.09371,0.0133 -0.109974,-0.002 -0.0967,-0.0967 z m 6.373868,0.0111 c 0,-0.13018 0.0915,-0.17385 0.17957,-0.0857 0.0881,0.0881 0.0444,0.17958 -0.0857,0.17958 -0.0607,0 -0.0938,-0.0332 -0.0938,-0.0938 z m 3.57158,-1.23887 c -0.42206,-0.12996 -0.71963,-0.61393 -0.64901,-1.05555 0.14179,-0.88671 1.29312,-1.16447 1.78112,-0.42973 0.3675,0.55333 0.10964,1.3037 -0.51147,1.48812 -0.29174,0.0867 -0.3306,0.0865 -0.62064,-0.002 z m -7.02382,-0.58935 c -4.365187,-0.009 -6.056974,-0.0272 -6.104077,-0.0663 -0.07748,-0.0642 -0.08497,-0.25334 -0.0151,-0.38386 0.04909,-0.0917 0.169081,-0.0935 6.188677,-0.0935 h 6.13864 v 0.26029 c 0,0.20889 -0.0167,0.26376 -0.0846,0.278 -0.0464,0.01 -2.80212,0.0121 -6.12352,0.006 z m 8.59738,-0.008 c -0.0111,-0.0111 -0.0202,-0.13619 -0.0202,-0.27802 v -0.25786 h 6.11029 6.1103 l 0.0567,0.13713 c 0.0436,0.10566 0.0434,0.16652 -0.002,0.26554 l -0.0585,0.12845 -6.08843,0.0126 c -3.34864,0.007 -6.09749,0.003 -6.10856,-0.008 z m -7.61095,-4.1137 v -1.59552 h 0.64761 c 1.01869,0 1.47364,0.19231 1.7559,0.7422 0.10038,0.19549 0.13232,0.33823 0.14894,0.66466 0.026,0.51176 -0.0629,0.85395 -0.30432,1.1701 -0.34102,0.44659 -0.78951,0.61278 -1.65585,0.61354 l -0.59228,5.5e-4 z m 1.35945,1.2111 c 0.38294,-0.11328 0.66837,-0.40686 0.77328,-0.79536 0.0295,-0.10897 0.0442,-0.37801 0.0327,-0.59782 -0.0182,-0.34659 -0.04,-0.42681 -0.16457,-0.60435 -0.079,-0.1126 -0.24068,-0.25878 -0.35916,-0.32485 -0.1858,-0.10357 -0.29021,-0.1226 -0.75934,-0.13818 l -0.54394,-0.0181 v 1.25423 c 0,0.68983 0.0163,1.27117 0.0362,1.29186 0.0468,0.0485 0.75711,-1e-4 0.98475,-0.0675 z m 1.5415,0.23937 c 0,-0.13366 0.0133,-0.14505 0.17001,-0.14505 h 0.17 l -0.0129,-1.29333 -0.0129,-1.29335 -0.15713,-0.0152 c -0.13817,-0.0133 -0.15713,-0.0323 -0.15713,-0.15714 v -0.14198 h 0.50767 0.50766 v 0.14505 c 0,0.13353 -0.0134,0.14504 -0.16922,0.14504 h -0.16923 v 1.30542 1.30544 h 0.16923 c 0.15579,0 0.16922,0.0116 0.16922,0.14504 v 0.14505 h -0.50766 -0.50767 z m 1.54717,-1.45047 v -1.59552 l 0.61645,0.002 c 0.71494,0.002 0.92756,0.0679 1.15088,0.36065 0.11678,0.15311 0.13642,0.22335 0.13642,0.48801 0,0.27064 -0.0181,0.33184 -0.14483,0.49122 -0.0797,0.10015 -0.23358,0.22754 -0.34206,0.2831 l -0.19722,0.10104 0.15168,0.12107 c 0.1252,0.0999 0.32307,0.39237 0.86723,1.2817 0.0295,0.0483 -0.0117,0.0632 -0.1753,0.0632 h -0.21398 l -0.30582,-0.5178 c -0.44042,-0.74563 -0.49684,-0.79987 -0.85938,-0.82609 l -0.29729,-0.0215 -0.005,0.54974 c -0.002,0.30235 -0.002,0.60957 0.003,0.6827 0.009,0.12473 -0.003,0.13295 -0.18827,0.13295 h -0.19704 z m 1.26131,-0.20694 c 0.22074,-0.14877 0.29437,-0.30374 0.26843,-0.56508 -0.0163,-0.16527 -0.0567,-0.24761 -0.17199,-0.35054 -0.1394,-0.12456 -0.18071,-0.13452 -0.55765,-0.13452 h -0.40709 l -0.0152,0.50193 c -0.0213,0.70224 -0.0457,0.65844 0.36798,0.65844 0.28627,0 0.38245,-0.0206 0.51551,-0.11023 z m 1.49458,0.20694 v -1.59552 h 0.79777 0.79776 v 0.16921 0.16923 h -0.62854 -0.62855 v 0.53184 0.53183 h 0.5802 0.58019 v 0.16924 0.16922 h -0.58172 -0.58174 l 0.0135,0.56809 0.0136,0.56811 0.6648,0.0134 0.6648,0.0134 v 0.14368 0.14369 h -0.84611 -0.84611 z m 2.01256,1.53508 c 0.0198,-0.0333 0.25911,-0.3924 0.53185,-0.79815 l 0.49586,-0.7377 -0.48062,-0.77744 c -0.26435,-0.42759 -0.48064,-0.78642 -0.48064,-0.79738 0,-0.011 0.0942,-0.0199 0.20931,-0.0199 h 0.20927 l 0.38811,0.6768 0.38809,0.67681 0.40586,-0.67617 0.40586,-0.67617 0.21104,-6.8e-4 0.21104,-6.6e-4 -0.0798,0.12173 c -0.42583,0.64988 -0.89835,1.42034 -0.89835,1.46477 0,0.0498 0.64669,1.10162 0.87386,1.42128 0.0511,0.0721 0.0931,0.14276 0.0931,0.15712 0,0.0144 -0.0954,0.0261 -0.21202,0.0261 h -0.212 l -0.37676,-0.64062 c -0.20721,-0.35235 -0.39174,-0.65839 -0.41006,-0.68009 -0.0183,-0.0217 -0.22241,0.26657 -0.45353,0.64062 l -0.42023,0.68009 h -0.21762 c -0.16106,0 -0.2083,-0.0157 -0.18169,-0.0605 z"
           style="fill:#ffffff;fill-opacity:1;stroke-width:0.04834912" />
      </g>
    </g>
  </g>
</svg>
