<?xml version="1.0" encoding="UTF-8" standalone="no"?>
<!-- Created with Inkscape (http://www.inkscape.org/) -->

<svg
   xmlns:dc="http://purl.org/dc/elements/1.1/"
   xmlns:cc="http://creativecommons.org/ns#"
   xmlns:rdf="http://www.w3.org/1999/02/22-rdf-syntax-ns#"
   xmlns:svg="http://www.w3.org/2000/svg"
   xmlns="http://www.w3.org/2000/svg"
   xmlns:sodipodi="http://sodipodi.sourceforge.net/DTD/sodipodi-0.dtd"
   xmlns:inkscape="http://www.inkscape.org/namespaces/inkscape"
   width="264.58334mm"
   height="264.58334mm"
   viewBox="0 0 264.58334 264.58334"
   version="1.1"
   id="svg8"
   inkscape:version="0.92.4 (5da689c313, 2019-01-14)"
   sodipodi:docname="logo.svg">
  <defs
     id="defs2" />
  <sodipodi:namedview
     id="base"
     pagecolor="#ffffff"
     bordercolor="#666666"
     borderopacity="1.0"
     inkscape:pageopacity="0.0"
     inkscape:pageshadow="2"
     inkscape:zoom="0.028794997"
     inkscape:cx="2593.7236"
     inkscape:cy="1691.166"
     inkscape:document-units="mm"
     inkscape:current-layer="layer2"
     showgrid="false"
     showguides="false"
     inkscape:guide-bbox="true"
     inkscape:window-width="1366"
     inkscape:window-height="715"
     inkscape:window-x="-8"
     inkscape:window-y="-8"
     inkscape:window-maximized="1"
     showborder="false"
     fit-margin-top="0"
     fit-margin-left="0"
     fit-margin-right="0"
     fit-margin-bottom="0">
    <sodipodi:guide
       position="313.68541,13.647908"
       orientation="1,0"
       id="guide841"
       inkscape:locked="false" />
    <sodipodi:guide
       position="382.36172,11.860788"
       orientation="1,0"
       id="guide843"
       inkscape:locked="false" />
  </sodipodi:namedview>
  <metadata
     id="metadata5">
    <rdf:RDF>
      <cc:Work
         rdf:about="">
        <dc:format>image/svg+xml</dc:format>
        <dc:type
           rdf:resource="http://purl.org/dc/dcmitype/StillImage" />
        <dc:title />
      </cc:Work>
    </rdf:RDF>
  </metadata>
  <g
     inkscape:groupmode="layer"
     id="layer2"
     inkscape:label="background"
     style="display:inline"
     transform="translate(244.24322,135.71062)" />
  <g
     inkscape:label="Title"
     inkscape:groupmode="layer"
     id="layer1"
     style="display:inline"
     transform="translate(244.24322,135.71062)">
    <g
       id="g868"
       transform="translate(2.1166667)"
       style="fill:#ffffff" />
    <g
       style="display:inline;fill:#ffffff"
       transform="matrix(2.6348766,0,0,2.6348764,-752.99662,-202.92676)"
       id="g138">
      <g
         id="g65">
        <g
           id="g106">
          <g
             id="text128"
             style="font-style:normal;font-weight:normal;font-size:76.67984772px;line-height:1.25;font-family:sans-serif;letter-spacing:0px;word-spacing:0px;fill:#ffffff;fill-opacity:1;stroke:none;stroke-width:1.91699624"
             transform="scale(1.0024147,0.9975911)"
             aria-label="W ">
            <path
               id="path67"
               style="font-style:normal;font-variant:normal;font-weight:500;font-stretch:normal;font-family:'Arima Koshi';-inkscape-font-specification:'Arima Koshi Medium';fill:#ffffff;stroke-width:1.91699624"
               d="m 149.90451,86.850101 c -1.68696,0 -2.68379,0.306719 -3.68063,0.690118 0.30672,0.460079 0.53676,1.073518 0.53676,1.916996 0,0.843479 -0.30672,1.840317 -0.46008,2.683795 L 136.2555,135.84852 124.60016,93.827967 c -0.3834,-1.150198 -1.76364,-1.686957 -3.45059,-1.686957 -1.45692,0 -3.52728,0.460079 -4.90751,1.150198 0.3834,0.843478 0.69012,2.147036 0.23004,4.140712 l -10.6585,38.4166 -11.0419,-46.391305 c -0.383399,-1.840316 -2.070356,-2.760474 -4.524111,-2.760474 -2.223716,0 -3.450593,0.766798 -4.217392,1.610277 0.920159,0.996838 1.610277,2.607115 1.916997,3.833992 l 12.422136,47.46483 c 0.3834,1.53359 2.07035,2.22371 4.60079,2.22371 1.07352,0 2.76047,-0.30672 4.60079,-1.07352 l 11.0419,-39.1834 10.50514,38.03321 c 0.3834,1.53359 2.07035,2.22371 4.21739,2.22371 1.22688,0 2.91383,-0.30672 4.75415,-1.07352 l 13.11225,-47.004743 c 0.3834,-1.380237 0.7668,-2.837154 0.7668,-3.833992 0.0767,-2.070356 -1.22688,-3.067194 -4.06403,-3.067194 z" />
          </g>
          <g
             id="text132"
             style="font-style:normal;font-weight:normal;font-size:15.72492409px;line-height:1.25;font-family:sans-serif;letter-spacing:0px;word-spacing:0px;fill:#ffffff;fill-opacity:1;stroke:none;stroke-width:0.39312309"
             aria-label="Monitoria">
            <path
               id="path70"
               style="font-style:normal;font-variant:normal;font-weight:500;font-stretch:normal;font-family:'Arima Koshi';-inkscape-font-specification:'Arima Koshi Medium';fill:#ffffff;stroke-width:0.39312309"
               d="m 98.182004,153.52581 -0.01573,-8.79024 c -0.04718,-0.22015 -0.440298,-0.39312 -0.880596,-0.39312 -0.204424,0 -0.566097,0.0157 -0.89632,0.14152 -1.006396,2.40592 -2.311564,5.59808 -3.396584,8.09834 -1.195094,-2.59461 -2.437363,-5.26785 -3.648182,-7.95681 -0.172975,-0.1887 -0.393124,-0.28305 -0.754797,-0.28305 -0.534647,0 -0.833421,0.0786 -0.95922,0.20442 0.07862,0.47175 0.09435,1.03785 0.09435,1.83982 l 0.01573,8.57008 c 0,0.39313 0.141525,0.64473 0.518923,0.64473 0.220149,0 0.424573,-0.0786 0.550372,-0.20443 -0.172974,-0.5032 -0.220149,-1.25799 -0.220149,-1.87126 l -0.01573,-7.31209 c 1.08502,2.56316 2.358739,5.31502 3.553833,7.61086 0.424573,0.1887 0.833421,0.15725 1.352344,-0.0315 l 3.286509,-7.57941 0.03145,8.60153 c 0,0.48747 0.314498,0.78625 0.770521,0.78625 0.408848,0 0.691897,-0.20443 0.833421,-0.33023 -0.172974,-0.5032 -0.220149,-1.13219 -0.220149,-1.74546 z" />
            <path
               id="path72"
               style="font-style:normal;font-variant:normal;font-weight:500;font-stretch:normal;font-family:'Arima Koshi';-inkscape-font-specification:'Arima Koshi Medium';fill:#ffffff;stroke-width:0.39312309"
               d="m 103.93192,155.61722 c 2.31156,0 3.64818,-1.55677 3.64818,-4.19855 0,-2.65752 -1.33662,-4.23001 -3.64818,-4.23001 -2.31156,0 -3.66391,1.57249 -3.66391,4.23001 0,2.64178 1.35235,4.19855 3.66391,4.19855 z m 0,-0.59755 c -1.39952,0 -2.13859,-1.27372 -2.13859,-3.601 0,-2.35874 0.73907,-3.63246 2.13859,-3.63246 1.38379,0 2.12287,1.27372 2.12287,3.63246 0,2.32728 -0.73908,3.601 -2.12287,3.601 z" />
            <path
               id="path74"
               style="font-style:normal;font-variant:normal;font-weight:500;font-stretch:normal;font-family:'Arima Koshi';-inkscape-font-specification:'Arima Koshi Medium';fill:#ffffff;stroke-width:0.39312309"
               d="m 116.16247,153.52581 v -3.08209 c 0,-2.13859 -0.80197,-3.25506 -2.53171,-3.25506 -1.28944,0 -2.23294,0.6919 -2.67324,1.90272 v -0.1887 c 0,-1.1322 -0.47175,-1.69829 -1.30517,-1.69829 -0.62899,0 -1.00639,0.33022 -1.00639,0.80197 0,0.1887 0.0629,0.34595 0.1887,0.51892 0.0944,-0.1887 0.29877,-0.22015 0.40885,-0.22015 0.29877,0 0.42457,0.22015 0.44029,0.80197 v 5.64525 c 0,0.53465 0.34595,0.84915 0.83342,0.84915 0.39313,0 0.6919,-0.1887 0.8177,-0.3145 -0.23587,-0.64473 -0.23587,-1.21082 -0.23587,-3.64819 0,-2.62606 1.10074,-3.64818 2.10714,-3.64818 1.16364,0 1.52531,0.92777 1.54104,2.64179 v 4.18283 c 0,0.48747 0.36167,0.78625 0.83342,0.78625 0.36167,0 0.629,-0.15725 0.8177,-0.33023 -0.1887,-0.5032 -0.22015,-1.21082 -0.23588,-1.74546 z" />
            <path
               id="path76"
               style="font-style:normal;font-variant:normal;font-weight:500;font-stretch:normal;font-family:'Arima Koshi';-inkscape-font-specification:'Arima Koshi Medium';fill:#ffffff;stroke-width:0.39312309"
               d="m 119.35733,146.05647 c 0.5032,0 0.91205,-0.40885 0.91205,-0.91205 0,-0.51892 -0.40885,-0.92777 -0.91205,-0.92777 -0.51892,0 -0.92777,0.40885 -0.92777,0.92777 0,0.5032 0.40885,0.91205 0.92777,0.91205 z m 0.77053,7.46934 -0.0157,-5.56663 c 0,-0.48747 -0.33022,-0.77052 -0.80197,-0.77052 -0.40885,0 -0.67617,0.20442 -0.8177,0.3145 0.1887,0.5032 0.22015,1.14792 0.22015,1.76119 l 0.0157,5.5509 c 0,0.48747 0.34595,0.78625 0.80197,0.78625 0.40885,0 0.6919,-0.20443 0.81769,-0.33023 -0.18869,-0.5032 -0.22014,-1.13219 -0.22014,-1.74546 z" />
            <path
               id="path78"
               style="font-style:normal;font-variant:normal;font-weight:500;font-stretch:normal;font-family:'Arima Koshi';-inkscape-font-specification:'Arima Koshi Medium';fill:#ffffff;stroke-width:0.39312309"
               d="m 124.87162,147.40881 h -0.50319 c 0.0157,-0.78625 0.0629,-1.32089 0.1887,-1.77692 -0.1258,-0.11007 -0.39313,-0.3145 -0.80198,-0.3145 -0.48747,0 -0.83342,0.28305 -0.83342,0.77053 v 1.32089 h -0.75479 c -0.22015,0 -0.39313,0.1258 -0.40885,0.3774 l -0.0157,0.39312 c 0.20443,-0.0315 0.73908,-0.0472 0.9435,-0.0472 h 0.23587 v 5.61379 c 0,1.14792 0.61328,1.83982 1.65112,1.83982 0.83342,0 1.41524,-0.34595 1.41524,-0.86487 0,-0.15725 -0.0472,-0.34595 -0.1887,-0.53465 -0.0943,0.20443 -0.44029,0.29878 -0.70762,0.29878 -0.50319,0 -0.75479,-0.29878 -0.75479,-0.84915 l 0.0157,-4.93763 v -0.56609 h 1.55677 c 0.20442,0 0.3774,-0.14153 0.39312,-0.39313 l 0.0157,-0.3774 c -0.15725,0.0157 -1.28945,0.0472 -1.4467,0.0472 z" />
            <path
               id="path80"
               style="font-style:normal;font-variant:normal;font-weight:500;font-stretch:normal;font-family:'Arima Koshi';-inkscape-font-specification:'Arima Koshi Medium';fill:#ffffff;stroke-width:0.39312309"
               d="m 130.77486,155.61722 c 2.31156,0 3.64818,-1.55677 3.64818,-4.19855 0,-2.65752 -1.33662,-4.23001 -3.64818,-4.23001 -2.31157,0 -3.66391,1.57249 -3.66391,4.23001 0,2.64178 1.35234,4.19855 3.66391,4.19855 z m 0,-0.59755 c -1.39952,0 -2.13859,-1.27372 -2.13859,-3.601 0,-2.35874 0.73907,-3.63246 2.13859,-3.63246 1.38379,0 2.12286,1.27372 2.12286,3.63246 0,2.32728 -0.73907,3.601 -2.12286,3.601 z" />
            <path
               id="path82"
               style="font-style:normal;font-variant:normal;font-weight:500;font-stretch:normal;font-family:'Arima Koshi';-inkscape-font-specification:'Arima Koshi Medium';fill:#ffffff;stroke-width:0.39312309"
               d="m 139.87615,147.18866 c -1.0064,0 -1.72974,0.61327 -2.09142,1.77692 0.0157,-1.17937 -0.47174,-1.76119 -1.28944,-1.76119 -0.629,0 -1.0064,0.33022 -1.0064,0.80197 0,0.1887 0.0629,0.34595 0.1887,0.51892 0.0943,-0.1887 0.29878,-0.22015 0.40885,-0.22015 0.29877,0 0.4403,0.22015 0.4403,0.80197 v 5.6138 c 0,0.53465 0.3774,0.84915 0.8177,0.84915 0.40884,-0.0157 0.70762,-0.20443 0.83342,-0.33023 -0.23588,-0.64472 -0.23588,-1.19509 -0.23588,-3.60101 0,-2.65751 0.7548,-3.69535 1.57249,-3.69535 0.55038,0 0.86488,0.29877 0.86488,0.94349 0,0.36168 -0.0472,0.629 -0.29878,1.0064 0.1258,0.14152 0.34595,0.22015 0.64472,0.20442 0.53465,-0.0315 0.99067,-0.51892 0.99067,-1.24227 0,-1.05357 -0.77052,-1.66684 -1.83981,-1.66684 z" />
            <path
               id="path84"
               style="font-style:normal;font-variant:normal;font-weight:500;font-stretch:normal;font-family:'Arima Koshi';-inkscape-font-specification:'Arima Koshi Medium';fill:#ffffff;stroke-width:0.39312309"
               d="m 144.17323,146.05647 c 0.5032,0 0.91205,-0.40885 0.91205,-0.91205 0,-0.51892 -0.40885,-0.92777 -0.91205,-0.92777 -0.51892,0 -0.92777,0.40885 -0.92777,0.92777 0,0.5032 0.40885,0.91205 0.92777,0.91205 z m 0.77052,7.46934 -0.0157,-5.56663 c 0,-0.48747 -0.33023,-0.77052 -0.80198,-0.77052 -0.40884,0 -0.67617,0.20442 -0.81769,0.3145 0.1887,0.5032 0.22015,1.14792 0.22015,1.76119 l 0.0157,5.5509 c 0,0.48747 0.34595,0.78625 0.80197,0.78625 0.40885,0 0.6919,-0.20443 0.8177,-0.33023 -0.1887,-0.5032 -0.22015,-1.13219 -0.22015,-1.74546 z" />
            <path
               id="path86"
               style="font-style:normal;font-variant:normal;font-weight:500;font-stretch:normal;font-family:'Arima Koshi';-inkscape-font-specification:'Arima Koshi Medium';fill:#ffffff;stroke-width:0.39312309"
               d="m 154.67232,154.17053 c -0.1258,0.20442 -0.34595,0.29877 -0.5032,0.29877 -0.36167,0 -0.55037,-0.26732 -0.55037,-0.83342 v -3.05064 c 0,-2.34301 -1.0064,-3.39658 -3.20788,-3.39658 -1.887,0 -3.08209,0.66045 -3.08209,1.90272 0,0.72334 0.47175,1.39951 1.25799,1.39951 0.29878,0 0.629,-0.0943 0.83343,-0.33022 -0.48748,-0.1887 -0.66045,-0.70762 -0.66045,-1.11647 0,-0.95922 0.78624,-1.25799 1.52532,-1.25799 1.36806,0 1.87126,0.91204 1.87126,2.72041 v 0.39312 c -0.75479,-0.0315 -1.68256,0.0472 -2.56316,0.28305 -1.46242,0.40885 -2.62606,1.24227 -2.62606,2.57889 0,1.11647 0.75479,1.82409 1.98134,1.82409 1.44669,0 2.64178,-0.9435 3.28651,-2.34301 v 0.2516 c 0,1.46241 0.50319,2.07569 1.44669,2.07569 0.66045,0 1.16364,-0.3774 1.16364,-0.86488 0,-0.15724 -0.0472,-0.34594 -0.17297,-0.53464 z m -5.0477,0.44029 c -0.80197,0.0315 -1.10075,-0.55037 -1.10075,-1.16364 0,-0.78625 0.51893,-1.35234 1.36807,-1.68257 0.61328,-0.26732 1.58822,-0.36167 2.31157,-0.33022 -0.0315,1.66684 -1.43097,3.12926 -2.57889,3.17643 z" />
          </g>
          <g
             id="text136"
             style="font-style:normal;font-weight:normal;font-size:62.49715805px;line-height:1.25;font-family:sans-serif;letter-spacing:0px;word-spacing:0px;fill:#ffffff;fill-opacity:1;stroke:none;stroke-width:1.56242895"
             aria-label="A">
            <path
               id="path89"
               style="font-style:normal;font-variant:normal;font-weight:500;font-stretch:normal;font-family:'Arima Koshi';-inkscape-font-specification:'Arima Koshi Medium';fill:#ffffff;stroke-width:1.56242895"
               d="M 137.32149,135.51165 125.07205,97.075893 c -0.43748,-1.562429 -1.81242,-1.999909 -3.31235,-1.999909 -1.56243,0 -3.12486,0.249988 -4.74978,0.87496 L 104.01051,134.3242 c -0.37499,1.12495 -0.68747,2.31239 -0.68747,3.12486 0,1.74992 1.06245,2.49988 3.24985,2.49988 1.37494,0 2.2499,-0.24999 3.12486,-0.56247 -0.31249,-0.37498 -0.43748,-0.87496 -0.43748,-1.56243 0,-0.68747 0.18749,-1.43743 0.37498,-2.1874 l 2.87487,-9.93705 h 15.93678 l 3.56233,11.99946 c 0.37499,1.49993 1.81242,2.24989 3.56234,2.24989 1.81242,0 2.74988,-0.62497 3.37485,-1.31244 -0.74997,-0.81246 -1.31244,-2.1249 -1.62493,-3.12485 z m -23.81142,-13.12441 6.87469,-23.623924 7.06218,23.623924 z" />
          </g>
        </g>
      </g>
    </g>
  </g>
  <g
     inkscape:groupmode="layer"
     id="layer4"
     inkscape:label="etc"
     style="display:inline"
     transform="translate(244.24322,135.71062)" />
</svg>
