<?xml version="1.0" encoding="UTF-8" standalone="no"?>
<!-- Created with Inkscape (http://www.inkscape.org/) -->

<svg
   xmlns:dc="http://purl.org/dc/elements/1.1/"
   xmlns:cc="http://creativecommons.org/ns#"
   xmlns:rdf="http://www.w3.org/1999/02/22-rdf-syntax-ns#"
   xmlns:svg="http://www.w3.org/2000/svg"
   xmlns="http://www.w3.org/2000/svg"
   xmlns:sodipodi="http://sodipodi.sourceforge.net/DTD/sodipodi-0.dtd"
   xmlns:inkscape="http://www.inkscape.org/namespaces/inkscape"
   width="264.58334mm"
   height="264.58334mm"
   viewBox="0 0 264.58334 264.58334"
   version="1.1"
   id="svg115"
   inkscape:version="0.92.4 (5da689c313, 2019-01-14)"
   sodipodi:docname="logo.svg">
  <defs
     id="defs109" />
  <sodipodi:namedview
     id="base"
     pagecolor="#ffffff"
     bordercolor="#666666"
     borderopacity="1.0"
     inkscape:pageopacity="0.0"
     inkscape:pageshadow="2"
     inkscape:zoom="0.16"
     inkscape:cx="1357.7331"
     inkscape:cy="684.89345"
     inkscape:document-units="mm"
     inkscape:current-layer="g158"
     showgrid="false"
     fit-margin-top="0"
     fit-margin-left="0"
     fit-margin-right="0"
     fit-margin-bottom="0"
     inkscape:window-width="1366"
     inkscape:window-height="715"
     inkscape:window-x="-8"
     inkscape:window-y="-8"
     inkscape:window-maximized="1" />
  <metadata
     id="metadata112">
    <rdf:RDF>
      <cc:Work
         rdf:about="">
        <dc:format>image/svg+xml</dc:format>
        <dc:type
           rdf:resource="http://purl.org/dc/dcmitype/StillImage" />
        <dc:title></dc:title>
      </cc:Work>
    </rdf:RDF>
  </metadata>
  <g
     inkscape:label="Layer 1"
     inkscape:groupmode="layer"
     id="layer1"
     transform="translate(-156.44093,-120.2933)">
    <path
       style="fill:#000000;stroke-width:0.26458335"
       d=""
       id="path166"
       inkscape:connector-curvature="0" />
    <path
       style="fill:#000000;stroke-width:0.26458335"
       d=""
       id="path164"
       inkscape:connector-curvature="0" />
    <g
       id="g327"
       transform="translate(1020.4549,58.799346)">
      <g
         style="display:inline"
         inkscape:label="background"
         id="layer2" />
      <g
         style="display:inline"
         id="layer1-6"
         inkscape:label="Title">
        <g
           style="fill:#ffffff"
           transform="translate(2.1166667)"
           id="g868" />
        <g
           transform="translate(-31.977213,-1.8636096)"
           id="g1011">
          <g
             style="display:inline"
             inkscape:export-ydpi="96"
             inkscape:export-xdpi="96"
             inkscape:export-filename="C:\Users\Matheus Jonatha\OneDrive\1-Vida Acadêmica\Paginas de divulgacao\1paginas_instagram\monitoria_annway\logo\logoquadrado1000x1000.png"
             transform="matrix(2.6348766,0,0,2.6348764,-595.65325,131.03379)"
             id="g158">
            <path
               style="fill:#ffffff;stroke-width:0.10041584"
               d="m -72.114609,58.897873 c -0.15145,-0.16735 -0.1707,-0.708 -0.19852,-5.57597 -0.0304,-5.31886 -0.0281,-5.39137 0.17002,-5.44459 0.36719,-0.0986 1.11411,-0.0584 1.27972,0.0688 0.0898,0.069 0.95908,1.86503 1.93167,3.99109 0.9726,2.12607 1.80483,3.90204 1.8494,3.94661 0.0679,0.0679 0.84342,-1.71354 3.1235,-7.17551 0.34969,-0.83768 0.41332,-0.88396 1.21857,-0.88633 0.2983,-9.1e-4 0.54147,0.0618 0.67608,0.17435 0.20746,0.17341 0.21065,0.24256 0.24227,5.24673 0.0176,2.78905 0.0689,5.17276 0.11391,5.29714 0.16585,0.45812 -1.0139,0.67769 -1.36565,0.25417 -0.10353,-0.12465 -0.14342,-1.13182 -0.18267,-4.61171 l -0.0502,-4.45224 -1.5928,3.68933 c -0.87604,2.02912 -1.66415,3.7458 -1.75136,3.81484 -0.17103,0.13538 -1.00212,0.16945 -1.18715,0.0487 -0.19629,-0.12813 -2.39814,-4.71958 -3.30929,-6.90073 l -0.29308,-0.70159 -0.029,3.61365 c -0.0165,2.05618 0.0165,4.04229 0.0766,4.60818 0.0581,0.547 0.0904,1.00969 0.0719,1.02822 -0.0185,0.0185 -0.16699,0.0603 -0.32992,0.0929 -0.21451,0.0429 -0.3425,0.008 -0.46395,-0.12608 z m 14.89142,0.0163 c -1.66245,-0.46677 -2.51856,-1.85993 -2.51856,-4.09849 0,-1.39543 0.45463,-2.65146 1.19502,-3.30154 0.65706,-0.5769 1.35509,-0.8203 2.36974,-0.82631 1.24805,-0.007 1.8359,0.20782 2.56839,0.94031 0.86937,0.86938 1.04111,1.40081 1.04111,3.22159 0,1.29933 -0.0258,1.52079 -0.23953,2.05779 -0.31502,0.79139 -1.1605,1.65243 -1.86373,1.89804 -0.70727,0.24702 -1.88154,0.29698 -2.55244,0.10861 z m 1.76768,-0.55604 c 0.45391,-0.17113 0.91932,-0.69394 1.152,-1.29408 0.30555,-0.78807 0.3778,-2.79361 0.13927,-3.86577 -0.35689,-1.60414 -1.48233,-2.33683 -2.72355,-1.7731 -0.49983,0.22701 -0.7674,0.55379 -1.06369,1.29905 -0.20049,0.50431 -0.22623,0.74613 -0.22623,2.1255 0,1.38662 0.0251,1.61962 0.22994,2.1354 0.27405,0.69003 0.59277,1.09234 1.04002,1.31279 0.3795,0.18705 1.04285,0.21455 1.45224,0.0602 z m 5.41743,0.50095 -0.26458,-0.20812 -0.007,-2.92988 c -0.004,-1.61143 -0.038,-3.12843 -0.0753,-3.37111 -0.0813,-0.52871 -0.31576,-0.72611 -0.62958,-0.53013 -0.25047,0.15642 -0.27204,0.14142 -0.34883,-0.24253 -0.12892,-0.6446 0.62803,-1.08131 1.42386,-0.82147 0.30739,0.10035 0.43848,0.22276 0.61636,0.57551 0.12427,0.24642 0.22794,0.60792 0.23038,0.80333 l 0.004,0.35528 0.19319,-0.36562 c 0.504028,-0.95395 1.356008,-1.44113 2.509168,-1.43479 1.16254,0.006 1.83564,0.44256 2.22587,1.44236 0.19757,0.50621 0.2249,0.82385 0.29003,3.37052 0.0395,1.54641 0.10404,2.9099 0.14333,3.02998 0.0982,0.3001 -0.42649,0.5804 -0.91492,0.48877 -0.60342,-0.1132 -0.62083,-0.20219 -0.65896,-3.36812 -0.0323,-2.68097 -0.0482,-2.89183 -0.25183,-3.33615 -0.50387,-1.09945 -1.70699,-1.18372 -2.56634,-0.17977 -0.640278,0.74803 -0.708588,1.07695 -0.753628,3.62927 -0.0242,1.36873 7e-4,2.41992 0.0624,2.64354 0.10016,0.36277 0.0947,0.37452 -0.23974,0.51425 -0.46449,0.19408 -0.67606,0.18013 -0.98785,-0.0651 z m 9.040738,-0.008 -0.2693,-0.23623 -0.0592,-3.51455 c -0.0326,-1.93301 -0.0973,-3.66485 -0.14393,-3.84853 -0.08,-0.3154 -0.0657,-0.34194 0.25753,-0.47698 0.46449,-0.19408 0.67607,-0.18013 0.98786,0.0651 l 0.26458,0.20812 0.003,3.0805 c 0.002,1.69427 0.0469,3.41781 0.10037,3.83008 0.11138,0.85829 0.053,0.97863 -0.51963,1.07156 -0.27797,0.0451 -0.40871,0.007 -0.62135,-0.17909 z m 4.98538,0.10879 c -0.49988,-0.15057 -0.90286,-0.62236 -1.02733,-1.20274 -0.0638,-0.29753 -0.1089,-1.69104 -0.1089,-3.36556 v -2.85778 l -0.55229,0.0649 -0.55228,0.0649 v -0.31154 c 0,-0.36654 0.21975,-0.51944 0.74651,-0.51944 h 0.35806 v -0.73958 c 0,-0.94725 0.20708,-1.26874 0.81722,-1.26874 0.74387,0 0.79585,0.0796 0.72289,1.10741 l -0.064,0.90091 h 0.96899 c 0.93839,0 0.96894,0.007 0.96745,0.22593 -0.003,0.41262 -0.11885,0.46732 -1.05614,0.49786 l -0.90043,0.0293 -0.0245,2.86185 c -0.0183,2.13978 0.007,2.92433 0.10169,3.10949 0.17713,0.34774 0.67033,0.47264 1.07304,0.27174 0.30553,-0.15242 0.31834,-0.14976 0.42691,0.0885 0.14718,0.32303 -0.0156,0.68801 -0.39426,0.8838 -0.38371,0.19842 -1.11465,0.27563 -1.50272,0.15874 z m 5.68495,-0.024 c -1.3448,-0.38154 -2.14383,-1.28063 -2.45882,-2.76676 -0.50783,-2.39595 0.3511,-4.60527 2.03544,-5.23546 1.49319,-0.55867 3.11082,-0.25311 4.09922,0.77433 0.9668,1.005 1.30242,3.28781 0.73372,4.99064 -0.35505,1.06312 -0.94529,1.70879 -1.94227,2.1247 -0.5249,0.21897 -1.87511,0.28056 -2.46729,0.11255 z m 2.06269,-0.78062 c 1.35389,-0.91136 1.53067,-5.01656 0.27369,-6.35595 -0.54679,-0.58263 -1.34268,-0.72027 -2.08554,-0.36066 -0.88935,0.43053 -1.2892,1.48393 -1.29459,3.41061 -0.004,1.42771 0.12849,2.08255 0.55855,2.76069 0.54176,0.85427 1.71566,1.10551 2.54789,0.54531 z m 12.07965,0.71378 -0.25132,-0.19768 -0.0538,-3.54281 c -0.0307,-2.02433 -0.0989,-3.68576 -0.15895,-3.87635 -0.10134,-0.32149 -0.0927,-0.33872 0.23814,-0.47697 0.46151,-0.19283 0.67687,-0.18076 0.97624,0.0547 l 0.25193,0.19816 0.0522,3.54233 c 0.0303,2.05565 0.0967,3.68231 0.15833,3.87586 0.10243,0.32182 0.0941,0.33859 -0.23712,0.47698 -0.46131,0.19275 -0.67686,0.18076 -0.97562,-0.0543 z m 4.41369,0.0581 c -0.83706,-0.23032 -1.27741,-0.82784 -1.27741,-1.73334 0,-1.53964 1.65946,-2.6321 4.2790205,-2.81696 l 0.84219,-0.0594 v -0.66981 c 0,-1.56886 -0.63403,-2.41329 -1.81199,-2.41329 -0.5211505,0 -1.1509705,0.26093 -1.3451405,0.55727 -0.0903,0.13776 -0.15659,0.45645 -0.15659,0.75233 0,0.43219 0.0459,0.55923 0.2903,0.80364 0.33515,0.33515 0.25901,0.46994 -0.31832,0.56363 -0.45785,0.0743 -0.98124,-0.17882 -1.2258,-0.59284 -0.25267,-0.42773 -0.24864,-1.14632 0.009,-1.58981 0.73438,-1.26461 3.9861605,-1.46058 5.1954305,-0.31311 0.70392,0.66796 0.86944,1.45899 0.86944,4.15522 0,1.87252 0.0122,2.00202 0.20597,2.19584 0.20474,0.20474 0.48873,0.19729 0.76136,-0.02 0.0734,-0.0585 0.13575,-0.0335 0.17572,0.0707 0.13388,0.34888 0.0542,0.63572 -0.24701,0.88917 -0.24715,0.20795 -0.41519,0.25996 -0.84,0.25996 -0.86471,0 -1.22027,-0.38 -1.40759,-1.50433 l -0.10842,-0.65079 -0.26862,0.45836 c -0.74682,1.27435 -2.3490005,2.00768 -3.6214405,1.65755 z m 2.0865205,-1.10079 c 0.87504,-0.40834 1.6375,-1.48422 1.80735,-2.55027 0.0666,-0.4181 0.0622,-0.42673 -0.21697,-0.42478 -0.60713,0.004 -1.67927,0.2099 -2.1500805,0.41244 -1.22738,0.528 -1.69221,1.86274 -0.88521,2.54178 0.38353,0.32272 0.78558,0.32852 1.4449105,0.0208 z m -13.5985405,0.92442 c -0.19093,-0.20494 -0.20228,-0.37586 -0.22985,-3.46088 -0.026,-2.9063 -0.047,-3.26326 -0.20101,-3.4172 -0.14303,-0.14291 -0.21554,-0.15206 -0.43022,-0.0542 -0.2296,0.10462 -0.26732,0.093 -0.34052,-0.10489 -0.1381,-0.3733 0.0173,-0.71494 0.41458,-0.91158 0.79853,-0.39522 1.61943,0.106 1.74685,1.06659 l 0.0687,0.51769 0.17512,-0.41236 c 0.38579,-0.90838 1.29675,-1.44047 2.22724,-1.30094 0.94088,0.1411 1.48069,0.7427 1.48133,1.6509 3e-4,0.47732 -0.0377,0.5753 -0.34104,0.87864 -0.35339,0.35339 -0.70563,0.43301 -1.06492,0.24073 -0.17102,-0.0915 -0.17504,-0.12578 -0.0442,-0.37656 0.21346,-0.40921 0.18379,-1.0532 -0.063,-1.36691 -0.16625,-0.21135 -0.2936,-0.26458 -0.63301,-0.26458 -0.34898,0 -0.48235,0.0593 -0.74655,0.33187 -0.17691,0.18253 -0.42167,0.60051 -0.5439,0.92885 -0.20574,0.55266 -0.22246,0.77214 -0.22521,2.95675 -0.002,1.29787 0.0315,2.52168 0.0737,2.71957 0.069,0.32375 0.051,0.37154 -0.18045,0.47697 -0.4127,0.18804 -0.91724,0.14463 -1.14366,-0.0984 z m -17.68099,-9.29442 c -0.62172,-0.22727 -0.81401,-1.0321 -0.35602,-1.49009 0.37223,-0.37223 0.95897,-0.34406 1.30104,0.0625 0.29487,0.35044 0.32267,0.58394 0.11688,0.98189 -0.20451,0.39548 -0.66761,0.58986 -1.0619,0.44573 z m 24.73814,-0.0286 c -0.31109,-0.12554 -0.53792,-0.49716 -0.53792,-0.88128 0,-0.79387 1.02625,-1.13717 1.54751,-0.51768 0.40222,0.47801 0.30003,1.06756 -0.23281,1.3431 -0.33509,0.17328 -0.46301,0.18248 -0.77678,0.0559 z m -40.597938,-4.6758 c -1.46194,-0.31701 -2.2672,-0.97199 -2.61113,-2.12386 -0.11204,-0.37521 -3.00296,-11.323761 -6.42427,-24.330122 -3.42132,-13.006362 -6.34135,-23.941647 -6.48895,-24.300633 -0.334,-0.812323 -0.68551,-1.433887 -1.11546,-1.972397 l -0.33209,-0.415951 0.42887,-0.395318 c 1.58811,-1.463868 5.36483,-1.655854 7.06889,-0.359342 0.55826,0.42474 0.66232,0.543161 0.94591,1.076467 0.12476,0.234606 2.25317,8.93286604 5.2681,21.529362 2.78233,11.624643 5.07233,21.149271 5.0889,21.165839 0.0166,0.01657 2.69307,-7.818972 5.94777,-17.412312 5.556708,-16.37856896 5.919898,-17.49143496 5.954648,-18.245764 0.0332,-0.720124 -0.0633,-1.366419 -0.33137,-2.220342 -0.0584,-0.186093 0.0128,-0.2438 0.58238,-0.471818 0.9202,-0.36838 2.09989,-0.65284 3.28315,-0.791668 2.04961,-0.240474 3.72139,0.281963 4.27169,1.334922 0.075,0.143591 1.52022,5.227143 3.21151,11.296782 1.69127,6.069639 3.27801,11.707183 3.52607,12.527876 0.54637,1.807594 5.22392,16.507099 5.33544,16.766939 0.0527,0.12285 0.48724,-1.583992 1.30373,-5.121203 0.67356,-2.918008 2.85485,-12.354661 4.84729,-20.97034 1.99245,-8.615679 3.73743,-16.207117 3.87772,-16.869861 0.30306,-1.4316 0.29063,-2.44161 -0.0392,-3.182802 l -0.20983,-0.471574 0.47106,-0.15646 c 1.33367,-0.442976 3.6237005,-0.605201 4.8550705,-0.343932 1.16332,0.246832 2.05909,0.972161 2.27896,1.845338 0.31304,1.243188 0.12851,2.113338 -2.22523,10.493321 -1.01606,3.61748 -4.0353205,14.381423 -6.7094505,23.919872 l -4.86206,17.342631 -1.05436,0.34875 c -2.56943,0.84988 -4.98217,0.89437 -6.51022,0.12005 -0.53698,-0.27211 -1.1151,-0.85812 -1.29696,-1.31467 -0.0658,-0.16528 -0.95736,-3.32164 -1.98117,-7.01413 -1.02381,-3.692489 -1.88637,-6.753917 -1.91681,-6.80317 -0.0759,-0.122862 -13.5702,-0.117996 -13.64617,0.0049 -0.0321,0.05196 -0.98339,3.359054 -2.11395,7.3491 -1.130558,3.99004 -2.112368,7.29001 -2.181788,7.33327 -0.25328,0.1578 -2.05485,0.69362 -2.82119,0.83906 -0.97086,0.18427 -2.81,0.18085 -3.67554,-0.007 z m 23.456348,-19.14831 c -0.70216,-2.71304 -5.75084,-20.636387 -5.79811,-20.583867 -0.0366,0.04066 -1.36214,4.660425 -2.94568,10.26614 -1.58354,5.605714 -2.9026,10.271285 -2.93125,10.367935 -0.0492,0.165955 0.27561,0.175727 5.84071,0.175727 h 5.89281 z"
               id="path423"
               inkscape:connector-curvature="0" />
          </g>
        </g>
      </g>
      <g
         style="display:inline"
         inkscape:label="etc"
         id="layer4" />
    </g>
  </g>
</svg>
